{"glyphs":{"0":{"ha":1000,"x_min":0,"x_max":0,"o":"m 296 1081 b 157 942 219 1081 157 1018 l 157 139 b 296 0 157 61 217 0 l 704 0 b 843 139 783 0 843 61 l 843 942 b 704 1081 843 1018 781 1081 z m 296 139 l 296 942 l 704 942 l 704 139 z "},"1":{"ha":1000,"x_min":0,"x_max":0,"o":"m 569 139 l 569 1081 l 226 1081 b 157 1011 190 1081 157 1061 b 226 942 157 961 190 942 l 431 942 l 431 139 l 226 139 b 157 69 190 139 157 119 b 226 0 157 19 190 0 l 774 0 b 843 69 810 0 843 19 l 843 419 b 774 489 843 460 825 489 b 704 419 722 489 704 460 l 704 139 z "},"2":{"ha":1000,"x_min":0,"x_max":0,"o":"m 296 471 l 688 471 b 800 510 733 471 765 478 b 843 633 839 546 843 583 l 843 918 b 800 1042 843 968 839 1006 b 688 1081 765 1074 733 1081 l 226 1081 b 157 1011 190 1081 157 1061 b 226 942 157 961 190 942 l 704 942 l 704 610 l 314 610 b 157 453 210 610 157 557 l 157 0 l 774 0 b 843 69 810 0 843 19 b 774 139 843 119 810 139 l 296 139 z "},"3":{"ha":1000,"x_min":0,"x_max":0,"o":"m 704 942 l 704 711 b 635 610 704 633 674 610 l 363 610 b 293 540 326 610 293 590 b 363 471 293 490 326 471 l 635 471 b 704 369 674 471 704 447 l 704 139 l 226 139 b 157 69 190 139 157 119 b 226 0 157 19 190 0 l 704 0 b 843 139 783 0 843 60 l 843 406 b 789 540 843 461 832 501 b 843 675 832 579 843 619 l 843 942 b 704 1081 843 1021 783 1081 l 226 1081 b 157 1011 190 1081 157 1061 b 226 942 157 961 190 942 z "},"4":{"ha":1000,"x_min":0,"x_max":0,"o":"m 365 492 l 365 1011 b 296 1081 365 1046 349 1081 b 226 1011 243 1081 226 1046 l 226 353 l 635 353 l 635 69 b 704 0 635 25 654 0 b 774 69 754 0 774 25 l 774 353 b 843 422 810 353 843 372 b 774 492 843 472 810 492 l 774 893 b 704 963 774 928 757 963 b 635 893 651 963 635 928 l 635 492 z "},"5":{"ha":1000,"x_min":0,"x_max":0,"o":"m 433 942 l 774 942 b 843 1011 810 942 843 961 b 774 1081 843 1061 810 1081 l 294 1081 l 294 471 l 704 471 l 704 139 l 383 139 b 310 167 361 139 329 158 l 268 185 b 224 196 253 192 240 196 b 157 126 188 196 157 163 b 236 49 157 78 199 65 l 289 25 b 381 0 324 10 344 0 l 689 0 b 810 47 739 0 775 6 b 843 156 839 82 843 113 l 843 453 b 800 571 843 501 839 535 b 689 610 767 603 733 610 l 433 610 z "},"6":{"ha":1000,"x_min":0,"x_max":0,"o":"m 296 942 b 365 1011 336 942 365 969 b 300 1081 365 1047 336 1081 l 217 1081 b 157 1011 168 1081 157 1043 l 157 88 b 247 0 157 24 182 0 l 753 0 b 843 88 815 0 843 22 l 843 399 b 760 492 843 463 829 492 l 296 492 z m 704 353 l 704 139 l 296 139 l 296 353 z "},"7":{"ha":1000,"x_min":0,"x_max":0,"o":"m 704 942 l 704 750 b 661 650 704 689 707 690 l 469 485 b 433 404 435 454 433 450 l 433 69 b 503 0 433 25 453 0 b 572 69 553 0 572 25 l 572 339 b 611 422 572 388 575 390 l 806 590 b 843 678 844 624 843 629 l 843 1081 l 226 1081 b 157 1011 182 1081 157 1042 l 157 942 b 226 872 157 911 182 872 b 296 942 271 872 296 911 z "},"8":{"ha":1000,"x_min":0,"x_max":0,"o":"m 435 610 l 435 942 l 565 942 l 565 610 z m 365 1081 b 296 1011 318 1081 296 1047 l 296 610 b 194 571 253 610 219 594 b 157 469 169 547 157 513 l 157 139 b 296 0 157 54 210 0 l 704 0 b 843 139 790 0 843 54 l 843 469 b 806 571 843 513 831 547 b 704 610 781 594 747 610 l 704 1011 b 635 1081 704 1047 682 1081 z m 296 139 l 296 471 l 704 471 l 704 139 z "},"9":{"ha":1000,"x_min":0,"x_max":0,"o":"m 704 139 b 635 69 664 139 635 111 b 704 0 635 32 663 0 l 774 0 b 843 69 815 0 843 32 l 843 1011 b 774 1081 843 1047 813 1081 l 226 1081 b 157 1011 188 1081 157 1047 l 157 656 b 226 586 157 619 188 586 l 704 586 z m 296 725 l 296 942 l 704 942 l 704 725 z "}," ":{"ha":1000,"x_min":0,"x_max":0,"o":""},"!":{"ha":1000,"x_min":0,"x_max":0,"o":"m 464 1081 b 403 978 404 1081 399 1044 l 428 501 b 499 413 431 453 442 413 b 569 501 556 413 567 453 l 594 978 b 535 1081 597 1044 594 1081 z m 481 194 b 403 115 428 194 403 168 l 403 79 b 481 0 403 26 428 0 l 517 0 b 594 79 569 0 594 26 l 594 115 b 517 194 594 168 569 194 z "},"\"":{"ha":1000,"x_min":0,"x_max":0,"o":"m 843 1081 l 157 1081 l 157 1011 l 217 715 b 294 632 226 668 232 632 b 358 714 343 632 350 674 l 406 942 l 594 942 l 642 714 b 706 632 650 674 657 632 b 783 715 768 632 774 668 l 843 1011 z "},"#":{"ha":1000,"x_min":0,"x_max":0,"o":"m 435 786 l 435 921 b 368 1013 435 965 429 1013 b 301 921 307 1013 301 965 l 301 786 l 260 786 b 168 719 211 786 168 776 b 260 653 168 663 211 653 l 301 653 l 301 499 l 260 499 b 168 432 211 499 168 489 b 260 365 168 375 211 365 l 301 365 l 301 231 b 368 139 301 186 307 139 b 435 231 429 139 435 186 l 435 365 l 565 365 l 565 231 b 632 139 565 186 571 139 b 699 231 693 139 699 186 l 699 365 l 740 365 b 832 432 789 365 832 375 b 740 499 832 489 789 499 l 699 499 l 699 653 l 740 653 b 832 719 789 653 832 663 b 740 786 832 776 789 786 l 699 786 l 699 921 b 632 1013 699 965 693 1013 b 565 921 571 1013 565 965 l 565 786 z m 565 653 l 565 499 l 435 499 l 435 653 z "},"$":{"ha":1000,"x_min":0,"x_max":0,"o":"m 431 844 l 226 844 b 157 775 189 844 157 813 l 157 540 b 226 471 157 503 189 471 l 704 471 l 704 375 l 226 375 b 157 306 190 375 157 356 b 226 236 157 256 190 236 l 431 236 l 431 69 b 500 0 431 25 450 0 b 569 69 550 0 569 25 l 569 236 l 774 236 b 843 306 811 236 843 268 l 843 540 b 774 610 843 578 811 610 l 296 610 l 296 706 l 774 706 b 843 775 810 706 843 725 b 774 844 843 825 810 844 l 569 844 l 569 1011 b 500 1081 569 1056 550 1081 b 431 1011 450 1081 431 1056 z "},"%":{"ha":1000,"x_min":0,"x_max":0,"o":"m 825 849 b 825 947 847 874 849 922 b 726 947 800 974 746 972 l 175 228 b 175 129 153 203 151 154 b 274 129 200 103 253 106 z m 756 0 b 828 26 786 0 808 0 b 843 89 843 47 843 63 l 843 167 b 828 229 843 193 843 208 b 756 256 808 256 786 256 l 656 256 b 583 229 625 256 603 256 b 568 167 568 208 568 193 l 568 89 b 583 26 568 63 568 47 b 656 0 603 0 625 0 z m 344 825 b 417 851 375 825 397 825 b 432 914 432 872 432 888 l 432 992 b 417 1054 432 1018 432 1033 b 344 1081 397 1081 375 1081 l 244 1081 b 172 1054 214 1081 192 1081 b 157 992 157 1033 157 1018 l 157 914 b 172 851 157 888 157 872 b 244 825 192 825 214 825 z "},"&":{"ha":1000,"x_min":0,"x_max":0,"o":"m 807 243 b 843 303 825 258 843 278 b 772 375 843 342 811 375 b 683 321 739 375 707 340 l 657 299 l 508 456 l 657 583 b 706 674 697 618 706 621 l 706 771 b 506 963 706 892 622 963 l 351 963 b 157 771 236 963 157 886 l 157 674 b 178 608 157 643 157 632 l 308 468 l 196 369 b 157 282 157 336 157 331 l 157 194 b 215 46 157 138 171 88 b 354 0 256 8 301 0 l 481 0 b 560 31 524 0 528 4 l 647 104 l 718 31 b 776 0 735 13 751 0 b 843 69 817 0 843 31 b 782 163 843 101 803 142 l 751 194 z m 414 557 l 296 688 l 296 736 b 351 824 296 790 286 824 l 506 824 b 567 736 575 824 567 796 l 567 688 z m 553 206 l 475 139 l 363 139 b 296 194 289 139 296 160 l 296 272 l 403 367 z "},"’":{"ha":1000,"x_min":0,"x_max":0,"o":"m 374 624 b 450 531 374 568 388 531 b 529 613 507 531 517 564 l 610 938 b 626 1011 615 960 626 997 b 542 1081 626 1047 613 1081 l 458 1081 b 374 1011 388 1081 374 1047 z "},"(":{"ha":1000,"x_min":0,"x_max":0,"o":"m 404 867 b 324 646 343 792 324 742 l 324 435 b 404 214 324 338 343 289 l 542 44 b 610 0 561 21 576 0 b 676 69 647 0 676 31 b 644 133 676 93 658 114 l 499 326 b 463 435 463 374 463 376 l 463 646 b 499 754 463 704 463 707 l 649 951 b 676 1011 661 968 676 988 b 613 1081 676 1046 649 1081 b 538 1031 575 1081 560 1058 z "},")":{"ha":1000,"x_min":0,"x_max":0,"o":"m 463 1031 b 388 1081 440 1058 425 1081 b 324 1011 351 1081 324 1046 b 351 951 324 988 339 968 l 501 754 b 538 646 538 707 538 704 l 538 435 b 501 326 538 376 538 374 l 356 133 b 324 69 342 114 324 93 b 390 0 324 31 353 0 b 458 44 424 0 439 21 l 596 214 b 676 435 657 289 676 338 l 676 646 b 596 867 676 742 657 792 z "},"*":{"ha":1000,"x_min":0,"x_max":0,"o":"m 213 383 b 157 307 189 364 157 340 b 226 235 157 268 186 235 b 301 278 256 235 281 260 l 431 389 l 431 189 b 500 119 431 144 450 119 b 569 189 550 119 569 144 l 569 389 l 699 278 b 774 235 719 260 744 235 b 843 307 814 235 843 268 b 788 383 843 340 811 364 l 606 539 l 806 710 b 843 769 824 725 843 744 b 774 843 843 808 814 843 b 718 817 751 843 733 831 l 569 689 l 569 892 b 500 961 569 936 550 961 b 431 892 450 961 431 936 l 431 689 l 282 817 b 226 843 267 831 249 843 b 157 769 186 843 157 808 b 194 710 157 744 176 725 l 394 539 z "},"+":{"ha":1000,"x_min":0,"x_max":0,"o":"m 431 610 l 226 610 b 157 540 190 610 157 590 b 226 471 157 490 190 471 l 431 471 l 431 267 b 500 197 431 222 450 197 b 569 267 550 197 569 222 l 569 471 l 774 471 b 843 540 810 471 843 490 b 774 610 843 590 810 610 l 569 610 l 569 817 b 500 886 569 861 550 886 b 431 817 450 886 431 861 z "},",":{"ha":1000,"x_min":0,"x_max":0,"o":"m 567 353 l 567 69 b 636 0 567 25 586 0 b 706 69 686 0 706 25 l 706 403 b 683 472 706 432 706 451 b 622 492 663 492 647 492 l 364 492 b 294 422 328 492 294 472 b 364 353 294 372 328 353 z "},"-":{"ha":1000,"x_min":0,"x_max":0,"o":"m 338 624 b 254 539 281 624 254 601 b 338 454 254 476 281 454 l 663 454 b 746 539 719 454 746 476 b 663 624 746 601 719 624 z "},".":{"ha":1000,"x_min":0,"x_max":0,"o":"m 550 178 b 622 204 581 178 603 178 b 638 267 638 225 638 240 l 638 344 b 622 407 638 371 638 386 b 550 433 603 433 581 433 l 450 433 b 378 407 419 433 397 433 b 363 344 363 386 363 371 l 363 267 b 378 204 363 240 363 225 b 450 178 397 178 419 178 z "},"/":{"ha":1000,"x_min":0,"x_max":0,"o":"m 828 961 b 843 1015 836 976 843 993 b 775 1081 843 1051 811 1081 b 707 1028 740 1081 724 1056 l 188 138 b 157 65 174 115 157 92 b 226 0 157 29 192 0 b 294 49 261 0 278 19 z "},":":{"ha":1000,"x_min":0,"x_max":0,"o":"m 550 176 b 622 203 581 176 603 176 b 638 265 638 224 638 239 l 638 343 b 622 406 638 369 638 385 b 550 432 603 432 581 432 l 450 432 b 378 406 419 432 397 432 b 363 343 363 385 363 369 l 363 265 b 378 203 363 239 363 224 b 450 176 397 176 419 176 z m 550 649 b 622 675 581 649 603 649 b 638 738 638 696 638 711 l 638 815 b 622 878 638 842 638 857 b 550 904 603 904 581 904 l 450 904 b 378 878 419 904 397 904 b 363 815 363 857 363 842 l 363 738 b 378 675 363 711 363 696 b 450 649 397 649 419 649 z "},";":{"ha":1000,"x_min":0,"x_max":0,"o":"m 568 353 l 568 69 b 638 0 568 25 588 0 b 707 69 688 0 707 25 l 707 403 b 685 472 707 432 708 451 b 624 492 664 492 649 492 l 363 492 b 293 422 326 492 293 472 b 363 353 293 372 326 353 z m 481 707 b 553 733 511 707 533 707 b 568 796 568 754 568 769 l 568 874 b 553 936 568 900 568 915 b 481 963 533 963 511 963 l 381 963 b 308 936 350 963 328 963 b 293 874 293 915 293 900 l 293 796 b 308 733 293 769 293 754 b 381 707 328 707 350 707 z "},"<":{"ha":1000,"x_min":0,"x_max":0,"o":"m 335 572 l 829 900 b 878 974 856 918 878 938 b 804 1049 876 1013 844 1049 b 747 1028 783 1049 764 1039 l 175 647 b 124 572 144 628 122 611 b 175 497 124 532 144 517 l 746 118 b 806 94 763 107 782 94 b 878 171 844 94 878 132 b 832 242 876 206 860 224 z "},"=":{"ha":1000,"x_min":0,"x_max":0,"o":"m 774 351 b 843 421 810 351 843 371 b 774 490 843 471 810 490 l 226 490 b 157 421 190 490 157 471 b 226 351 157 371 190 351 z m 774 646 b 843 715 810 646 843 665 b 774 785 843 765 810 785 l 226 785 b 157 715 190 785 157 765 b 226 646 157 665 190 646 z "},">":{"ha":1000,"x_min":0,"x_max":0,"o":"m 169 242 b 124 171 142 224 125 206 b 196 94 124 132 157 94 b 256 118 219 94 239 107 l 826 497 b 878 572 857 517 878 532 b 826 647 879 611 857 628 l 254 1028 b 197 1049 238 1039 218 1049 b 124 974 157 1049 125 1013 b 172 900 124 938 146 918 l 667 572 z "},"?":{"ha":1000,"x_min":0,"x_max":0,"o":"m 704 810 l 335 489 b 293 408 300 460 293 456 l 293 306 b 363 236 293 261 313 236 b 432 306 413 236 432 261 l 432 390 l 800 708 b 843 796 838 742 843 746 l 843 872 b 807 956 843 918 843 925 l 693 1053 b 636 1081 674 1069 663 1081 b 579 1053 611 1081 596 1068 l 211 739 b 157 663 189 719 157 696 b 226 590 157 624 186 590 b 285 618 249 590 268 604 l 636 919 l 704 861 z m 363 139 b 293 68 325 139 293 106 b 363 0 293 31 325 0 b 432 68 401 0 432 31 b 363 139 432 107 401 139 z "},"@":{"ha":1000,"x_min":0,"x_max":0,"o":"m 168 229 b 369 0 168 110 240 0 b 500 56 417 0 465 22 b 636 0 535 19 588 0 b 790 78 694 0 754 33 b 832 239 833 131 832 174 l 832 822 b 671 1061 832 936 779 1018 b 550 1081 622 1081 599 1081 l 429 1081 b 247 1024 358 1081 304 1072 b 168 893 214 996 168 939 b 235 831 168 857 199 831 b 311 900 279 831 293 867 b 425 947 336 946 379 947 l 564 947 b 681 899 611 947 653 940 b 699 794 703 865 699 833 l 699 257 b 633 133 699 207 706 133 b 567 242 571 133 567 196 l 567 571 b 468 667 567 650 544 667 l 374 667 b 168 442 240 667 168 565 z m 433 240 b 369 133 433 219 443 133 b 301 247 306 133 301 201 l 301 436 b 369 533 301 515 333 533 l 433 533 z "},"A":{"ha":1000,"x_min":0,"x_max":0,"o":"m 157 69 b 224 0 147 36 185 0 b 299 69 267 0 289 36 l 351 236 l 647 236 l 699 69 b 774 0 708 36 731 0 b 840 69 813 0 850 36 l 572 1010 b 500 1081 563 1046 546 1081 b 429 1010 456 1081 440 1047 z m 608 375 l 390 375 l 499 751 l 501 751 z "},"B":{"ha":1000,"x_min":0,"x_max":0,"o":"m 157 0 l 546 0 b 843 289 722 0 843 107 b 751 540 843 392 831 465 b 843 760 825 606 843 679 b 546 1081 843 956 750 1081 l 157 1081 z m 296 471 l 546 471 b 704 289 672 471 704 406 b 546 139 704 183 646 139 l 296 139 z m 296 942 l 546 942 b 704 760 672 942 704 876 b 546 610 704 654 646 610 l 296 610 z "},"C":{"ha":1000,"x_min":0,"x_max":0,"o":"m 774 0 b 843 69 806 0 843 19 b 774 139 843 122 804 139 l 547 139 b 443 200 485 139 471 143 l 325 440 b 296 536 308 474 296 497 b 325 642 296 579 307 604 l 446 883 b 542 942 472 936 482 942 l 774 942 b 843 1011 806 942 843 961 b 774 1081 843 1064 804 1081 l 538 1081 b 324 947 431 1081 371 1043 l 196 690 b 157 536 168 635 157 597 b 194 390 157 482 171 438 l 322 132 b 531 0 367 42 426 0 z "},"D":{"ha":1000,"x_min":0,"x_max":0,"o":"m 293 139 l 226 139 b 157 69 190 139 157 119 b 226 0 157 19 190 0 l 457 0 b 676 131 565 0 628 32 l 803 383 b 843 536 828 433 843 481 b 801 697 843 600 829 640 l 679 942 b 469 1081 632 1036 578 1081 l 238 1081 b 157 1011 194 1081 157 1061 b 242 942 157 958 196 942 l 293 942 z m 432 942 l 449 942 b 554 883 513 942 525 943 l 669 649 b 704 535 689 608 704 582 b 678 444 704 500 693 476 l 556 197 b 458 139 531 146 517 139 l 432 139 z "},"E":{"ha":1000,"x_min":0,"x_max":0,"o":"m 296 139 l 296 471 l 500 471 b 569 540 536 471 569 490 b 500 610 569 590 536 610 l 296 610 l 296 942 l 774 942 b 843 1011 810 942 843 961 b 774 1081 843 1061 810 1081 l 157 1081 l 157 0 l 774 0 b 843 69 810 0 843 19 b 774 139 843 119 810 139 z "},"F":{"ha":1000,"x_min":0,"x_max":0,"o":"m 157 69 b 226 0 157 25 176 0 b 296 69 276 0 296 25 l 296 589 l 638 589 b 707 658 674 589 707 608 b 638 728 707 708 674 728 l 296 728 l 296 942 l 774 942 b 843 1011 810 942 843 961 b 774 1081 843 1061 810 1081 l 157 1081 z "},"G":{"ha":1000,"x_min":0,"x_max":0,"o":"m 704 353 l 704 211 b 613 139 704 150 663 139 l 392 139 b 296 239 313 139 296 163 l 296 511 b 339 692 296 579 296 638 l 490 885 b 607 942 536 943 531 942 l 774 942 b 843 1011 810 942 843 961 b 774 1081 843 1061 810 1081 l 588 1081 b 393 986 497 1081 449 1057 l 229 776 b 157 574 176 708 157 663 l 157 226 b 222 56 157 157 167 106 b 382 0 271 11 318 0 l 621 0 b 843 218 753 0 843 83 l 843 492 l 569 492 b 500 422 533 492 500 472 b 569 353 500 372 533 353 z "},"H":{"ha":1000,"x_min":0,"x_max":0,"o":"m 704 471 l 704 69 b 774 0 704 25 724 0 b 843 69 824 0 843 25 l 843 1011 b 774 1081 843 1056 824 1081 b 704 1011 724 1081 704 1056 l 704 610 l 296 610 l 296 1011 b 226 1081 296 1056 276 1081 b 157 1011 176 1081 157 1056 l 157 69 b 226 0 157 25 176 0 b 296 69 276 0 296 25 l 296 471 z "},"I":{"ha":1000,"x_min":0,"x_max":0,"o":"m 569 942 l 774 942 b 843 1011 810 942 843 961 b 774 1081 843 1061 810 1081 l 226 1081 b 157 1011 190 1081 157 1061 b 226 942 157 961 190 942 l 431 942 l 431 139 l 226 139 b 157 69 190 139 157 119 b 226 0 157 19 190 0 l 774 0 b 843 69 810 0 843 19 b 774 139 843 119 810 139 l 569 139 z "},"J":{"ha":1000,"x_min":0,"x_max":0,"o":"m 774 1011 b 704 1081 774 1056 754 1081 b 635 1011 654 1081 635 1056 l 635 214 b 540 139 635 147 599 139 l 464 139 b 365 242 382 139 365 161 l 365 422 b 296 492 365 467 346 492 b 226 422 246 492 226 467 l 226 221 b 269 81 226 165 235 126 b 464 0 319 14 386 0 l 544 0 b 747 103 631 0 700 24 b 774 236 774 150 774 183 z "},"K":{"ha":1000,"x_min":0,"x_max":0,"o":"m 157 69 b 226 0 157 25 176 0 b 296 69 276 0 296 25 l 296 390 l 701 42 b 776 0 724 25 747 0 b 843 72 817 0 843 33 b 808 132 843 97 826 117 l 332 540 l 811 949 b 843 1007 828 964 843 983 b 776 1079 843 1046 817 1079 b 719 1051 754 1079 736 1065 l 296 692 l 296 1011 b 226 1081 296 1056 276 1081 b 157 1011 176 1081 157 1056 z "},"L":{"ha":1000,"x_min":0,"x_max":0,"o":"m 296 139 l 296 1011 b 226 1081 296 1056 276 1081 b 157 1011 176 1081 157 1056 l 157 0 l 774 0 b 843 69 810 0 843 19 b 774 139 843 119 810 139 z "},"M":{"ha":1000,"x_min":0,"x_max":0,"o":"m 500 836 l 331 1081 l 157 1081 l 157 69 b 226 0 157 25 176 0 b 296 69 276 0 296 25 l 296 889 l 299 889 l 431 693 l 431 671 b 500 588 431 628 450 588 b 569 671 553 588 569 628 l 569 693 l 701 889 l 704 889 l 704 69 b 774 0 704 25 724 0 b 843 69 824 0 843 25 l 843 1081 l 669 1081 z "},"N":{"ha":1000,"x_min":0,"x_max":0,"o":"m 704 238 l 701 238 l 703 238 l 340 1081 l 157 1081 l 157 69 b 226 0 157 25 176 0 b 296 69 276 0 296 25 l 296 833 l 299 833 l 299 832 l 661 -1 l 844 -1 l 844 1010 b 775 1079 844 1054 825 1079 b 706 1010 725 1079 706 1054 z "},"O":{"ha":1000,"x_min":0,"x_max":0,"o":"m 668 967 b 500 1081 635 1032 578 1081 b 332 967 422 1081 365 1032 l 193 690 b 157 536 167 636 157 596 b 203 371 157 469 175 428 l 331 115 b 500 0 364 49 419 0 b 669 115 581 0 636 49 l 797 371 b 843 536 825 428 843 469 b 807 690 843 596 833 636 z m 672 649 b 704 536 693 608 704 582 b 681 444 704 500 696 475 l 547 181 b 500 139 538 161 528 139 b 453 181 472 139 463 161 l 319 444 b 296 536 304 475 296 500 b 328 649 296 582 307 608 l 453 900 b 500 942 464 922 471 942 b 547 900 529 942 536 922 z "},"P":{"ha":1000,"x_min":0,"x_max":0,"o":"m 296 408 l 600 408 b 786 475 675 408 732 414 b 843 653 838 532 843 582 l 843 842 b 778 1024 843 917 838 968 b 618 1081 728 1071 682 1081 l 157 1081 l 157 69 b 226 0 157 25 176 0 b 296 69 276 0 296 25 z m 296 942 l 604 942 b 704 842 686 942 704 921 l 704 647 b 604 547 704 568 686 547 l 296 547 z "},"Q":{"ha":1000,"x_min":0,"x_max":0,"o":"m 592 0 l 751 0 b 843 69 800 0 843 11 b 768 139 843 114 810 139 l 686 139 l 651 222 l 733 293 b 843 532 815 364 843 425 l 843 900 b 669 1081 843 1003 775 1081 b 551 1024 619 1081 588 1056 l 268 782 b 157 553 193 718 157 654 l 157 189 b 203 53 157 133 164 96 b 325 0 235 18 278 0 b 450 49 379 0 411 15 l 542 126 z m 582 399 b 501 488 564 440 556 488 b 432 421 465 488 432 458 b 451 356 432 400 443 375 l 488 264 l 368 160 b 326 139 357 150 342 139 b 296 188 294 139 296 165 l 296 547 b 358 676 296 610 311 636 l 638 918 b 676 942 650 928 660 942 b 704 886 707 942 704 908 l 704 540 b 631 385 704 457 694 438 l 599 358 z "},"R":{"ha":1000,"x_min":0,"x_max":0,"o":"m 296 586 l 328 586 l 711 39 b 772 0 726 17 744 0 b 843 65 811 0 843 26 b 808 139 843 92 824 118 l 496 586 l 624 586 b 843 783 735 586 843 653 l 843 879 b 624 1081 843 1003 733 1081 l 157 1081 l 157 69 b 226 0 157 25 176 0 b 296 69 276 0 296 25 z m 296 942 l 606 942 b 704 879 647 942 704 935 l 704 783 b 604 725 704 728 643 725 l 296 725 z "},"S":{"ha":1000,"x_min":0,"x_max":0,"o":"m 317 885 b 296 922 311 893 296 910 b 343 942 296 946 328 942 l 638 942 b 704 888 681 942 704 935 b 771 822 704 849 729 822 b 843 903 821 822 843 858 b 778 1035 843 951 814 1003 b 640 1081 738 1069 693 1081 l 346 1081 b 231 1056 301 1081 269 1081 b 157 922 183 1025 157 978 b 203 808 157 874 174 846 l 679 196 b 704 156 685 188 704 167 b 658 139 704 135 669 139 l 357 139 b 296 186 318 139 296 144 b 231 257 296 224 271 257 b 157 174 182 257 157 218 b 222 44 157 125 185 75 b 363 0 264 10 310 0 l 668 0 b 843 157 764 0 843 53 b 794 272 843 204 822 236 z "},"T":{"ha":1000,"x_min":0,"x_max":0,"o":"m 431 942 l 431 69 b 500 0 431 25 450 0 b 569 69 550 0 569 25 l 569 942 l 704 942 l 704 892 b 774 822 704 847 724 822 b 843 892 824 822 843 847 l 843 1081 l 157 1081 l 157 892 b 226 822 157 847 176 822 b 296 892 276 822 296 847 l 296 942 z "},"U":{"ha":1000,"x_min":0,"x_max":0,"o":"m 618 0 b 790 71 688 0 742 17 b 843 236 836 122 843 172 l 843 1011 b 774 1081 843 1056 824 1081 b 704 1011 724 1081 704 1056 l 704 236 b 618 139 704 158 681 139 l 382 139 b 296 236 319 139 296 158 l 296 1011 b 226 1081 296 1056 276 1081 b 157 1011 176 1081 157 1056 l 157 236 b 210 71 157 172 164 122 b 382 0 258 17 313 0 z "},"V":{"ha":1000,"x_min":0,"x_max":0,"o":"m 500 258 l 296 789 l 296 1011 b 226 1081 296 1056 276 1081 b 157 1011 176 1081 157 1056 l 157 792 b 165 738 157 774 158 754 l 431 61 b 500 0 444 26 457 0 b 569 61 543 0 556 26 l 835 738 b 843 792 842 754 843 774 l 843 1011 b 774 1081 843 1056 824 1081 b 704 1011 724 1081 704 1056 l 704 789 z "},"W":{"ha":1000,"x_min":0,"x_max":0,"o":"m 690 0 b 775 50 739 0 751 8 l 824 135 b 843 206 842 165 843 168 l 843 1011 b 774 1081 843 1056 824 1081 b 704 1011 724 1081 704 1056 l 704 206 l 667 139 l 607 139 l 569 206 l 569 643 b 500 725 569 686 550 725 b 431 643 450 725 431 686 l 431 206 l 393 139 l 333 139 l 296 206 l 296 1011 b 226 1081 296 1056 276 1081 b 157 1011 176 1081 157 1056 l 157 206 b 176 135 157 168 158 165 l 225 50 b 310 0 249 8 261 0 l 414 0 b 499 60 461 0 489 10 l 501 60 b 586 0 511 10 539 0 z "},"X":{"ha":1000,"x_min":0,"x_max":0,"o":"m 174 115 b 157 65 164 100 157 85 b 225 0 157 29 190 0 b 306 68 271 0 286 35 l 500 400 l 694 68 b 775 0 714 35 729 0 b 843 65 810 0 843 29 b 826 115 843 85 836 100 l 579 540 l 826 965 b 843 1015 836 981 843 996 b 775 1081 843 1051 810 1081 b 694 1013 729 1081 714 1046 l 500 681 l 306 1013 b 225 1081 286 1046 271 1081 b 157 1015 190 1081 157 1051 b 174 965 157 996 164 981 l 421 540 z "},"Y":{"ha":1000,"x_min":0,"x_max":0,"o":"m 569 514 l 843 869 l 843 1011 b 774 1081 843 1056 824 1081 b 704 1011 724 1081 704 1056 l 704 917 l 500 651 l 296 917 l 296 1011 b 226 1081 296 1056 276 1081 b 157 1011 176 1081 157 1056 l 157 869 l 431 514 l 431 69 b 500 0 431 25 450 0 b 569 69 550 0 569 25 z "},"Z":{"ha":1000,"x_min":0,"x_max":0,"o":"m 843 1081 l 226 1081 b 157 1011 190 1081 157 1061 b 226 942 157 961 190 942 l 654 942 l 157 88 l 157 0 l 774 0 b 843 69 810 0 843 19 b 774 139 843 119 810 139 l 344 139 l 843 990 z "},"[":{"ha":1000,"x_min":0,"x_max":0,"o":"m 507 139 l 507 942 l 760 942 b 843 1011 804 942 843 961 b 757 1081 843 1063 801 1081 l 250 1081 b 157 982 171 1081 157 1057 l 157 93 b 256 0 157 14 179 0 l 760 0 b 843 69 804 0 843 19 b 757 139 843 121 801 139 z m 296 139 l 296 942 l 368 942 l 368 139 z "},"\\":{"ha":1000,"x_min":0,"x_max":0,"o":"m 707 49 b 775 0 724 19 740 0 b 843 65 810 0 843 29 b 814 138 843 92 828 115 l 294 1028 b 226 1081 278 1056 261 1081 b 157 1011 190 1081 157 1047 b 174 961 157 993 165 976 z "},"]":{"ha":1000,"x_min":0,"x_max":0,"o":"m 243 139 b 157 69 199 139 157 121 b 240 0 157 19 196 0 l 744 0 b 843 93 821 0 843 14 l 843 982 b 750 1081 843 1057 829 1081 l 243 1081 b 157 1011 199 1081 157 1063 b 240 942 157 961 196 942 l 493 942 l 493 139 z m 632 139 l 632 942 l 704 942 l 704 139 z "},"^":{"ha":1000,"x_min":0,"x_max":0,"o":"m 500 558 l 697 271 b 764 225 715 244 729 225 b 824 285 796 225 824 251 b 801 350 824 308 813 329 l 575 781 b 500 844 557 814 544 844 b 426 781 457 844 443 814 l 200 350 b 176 285 189 329 176 308 b 236 225 176 251 204 225 b 304 271 272 225 286 244 z "},"_":{"ha":1000,"x_min":0,"x_max":0,"o":"m 0 -82 l 0 -221 l 1000 -221 l 1000 -82 z "},"‘":{"ha":1000,"x_min":0,"x_max":0,"o":"m 626 988 b 550 1081 626 1043 613 1081 b 471 999 493 1081 483 1047 l 390 674 b 374 600 385 651 374 614 b 458 531 374 564 388 531 l 542 531 b 626 600 613 531 626 564 z "},"a":{"ha":1000,"x_min":0,"x_max":0,"o":"m 563 615 b 681 499 658 615 681 599 l 681 468 l 394 468 b 239 418 336 468 285 458 b 174 269 189 374 174 333 l 174 211 b 243 47 174 142 188 93 b 394 0 292 7 335 0 l 522 0 b 604 19 565 0 567 0 l 696 67 b 764 0 694 29 729 0 b 826 78 808 0 828 39 l 813 531 b 753 689 811 597 804 638 b 581 749 700 742 650 749 l 397 749 b 306 682 353 749 306 739 b 397 615 306 624 358 615 z m 593 335 b 688 239 667 335 688 313 l 688 210 l 540 133 l 393 133 b 307 188 361 133 307 143 l 307 276 b 396 335 307 325 360 335 z "},"b":{"ha":1000,"x_min":0,"x_max":0,"o":"m 307 932 b 240 1024 307 978 297 1024 b 174 932 183 1024 174 978 l 174 93 b 240 0 174 47 183 0 b 307 89 293 0 307 46 l 307 97 l 338 68 b 467 0 375 33 413 0 l 604 0 b 708 47 638 0 676 21 l 754 86 b 826 240 807 132 826 169 l 826 508 b 754 663 826 579 807 617 l 708 701 b 610 749 675 729 644 749 l 463 749 b 331 675 401 749 375 719 l 307 651 z m 307 438 b 347 517 307 478 325 499 l 433 592 b 489 615 449 606 471 615 l 582 615 b 614 604 596 615 606 611 l 675 557 b 693 501 686 549 693 528 l 693 265 b 676 194 693 239 692 207 l 618 146 b 576 133 608 138 596 133 l 475 133 b 424 167 461 133 440 153 l 347 232 b 307 321 313 261 307 278 z "},"c":{"ha":1000,"x_min":0,"x_max":0,"o":"m 174 310 b 253 135 174 228 189 188 l 351 53 b 524 0 414 1 446 0 l 735 0 b 826 67 779 0 826 10 b 735 133 826 125 774 133 l 500 133 b 424 167 474 133 447 147 l 343 235 b 307 292 322 251 307 265 l 307 457 b 343 514 307 483 322 497 l 424 582 b 500 615 447 601 474 615 l 735 615 b 826 682 774 615 826 624 b 735 749 826 739 779 749 l 524 749 b 351 696 446 749 414 747 l 253 614 b 174 439 189 561 174 521 z "},"d":{"ha":1000,"x_min":0,"x_max":0,"o":"m 421 749 b 293 701 365 749 335 738 l 247 663 b 174 508 192 615 174 579 l 174 240 b 247 86 174 169 192 133 l 293 47 b 407 0 313 31 363 0 l 536 0 b 664 68 576 0 622 29 l 693 97 l 693 89 b 760 0 693 44 707 0 b 826 93 817 0 826 47 l 826 932 b 760 1024 826 978 817 1024 b 693 932 703 1024 693 978 l 693 651 l 671 675 b 539 749 622 724 585 749 z m 307 456 b 328 557 307 493 307 540 l 368 589 b 418 615 385 603 401 615 l 513 615 b 578 582 529 615 553 604 l 654 517 b 693 458 674 500 693 483 l 693 290 b 654 232 693 265 674 249 l 578 167 b 513 133 553 144 529 133 l 418 133 b 368 160 401 133 385 146 l 328 192 b 307 293 307 208 307 256 z "},"e":{"ha":1000,"x_min":0,"x_max":0,"o":"m 735 0 b 826 67 774 0 826 8 b 735 133 826 124 779 133 l 449 133 b 360 158 404 133 378 139 l 326 194 b 307 233 317 204 307 221 l 307 278 l 735 278 b 826 376 814 278 826 300 l 826 483 b 757 657 826 557 818 608 l 703 700 b 556 749 651 742 621 749 l 433 749 b 286 693 379 749 349 747 l 239 653 b 174 493 183 606 174 564 l 174 236 b 242 86 174 164 189 133 l 299 36 b 418 0 340 0 363 0 z m 307 506 b 335 567 307 544 318 554 l 381 600 b 449 615 403 615 424 615 l 561 615 b 625 599 582 615 608 614 l 676 554 b 693 492 694 538 693 517 l 693 411 l 307 411 z "},"f":{"ha":1000,"x_min":0,"x_max":0,"o":"m 369 92 b 436 0 369 46 379 0 b 503 92 493 0 503 46 l 503 615 l 621 615 b 713 682 660 615 713 624 b 621 749 713 739 665 749 l 503 749 l 503 775 b 631 890 503 872 540 890 l 735 890 b 826 957 781 890 826 900 b 729 1024 826 1019 775 1024 l 639 1024 b 433 957 557 1024 497 1018 b 369 767 374 899 369 843 l 369 749 l 332 749 b 240 682 288 749 240 739 b 332 615 240 624 293 615 l 369 615 z "},"g":{"ha":1000,"x_min":0,"x_max":0,"o":"m 174 297 b 215 172 174 243 176 208 l 299 97 b 399 57 339 61 371 57 l 556 57 b 665 122 593 57 635 92 l 693 150 l 693 -33 b 674 -89 693 -58 685 -78 l 640 -119 b 574 -150 619 -137 601 -150 l 329 -150 b 238 -217 285 -150 238 -160 b 329 -283 238 -275 290 -283 l 550 -283 b 717 -226 625 -283 658 -275 l 761 -189 b 826 4 817 -142 826 -117 l 826 656 b 761 749 826 700 819 749 b 693 671 715 749 693 713 l 693 656 l 660 682 b 529 749 608 722 565 749 l 400 749 b 317 717 365 749 344 739 l 219 640 b 174 500 192 618 174 563 z m 307 489 b 324 558 307 517 308 546 l 379 603 b 418 615 389 611 401 615 l 515 615 b 576 581 532 615 551 601 l 679 496 b 693 451 689 488 693 469 l 693 354 b 679 310 693 336 689 318 l 576 225 b 515 190 551 204 532 190 l 418 190 b 379 203 401 190 389 194 l 324 247 b 307 317 308 260 307 289 z "},"h":{"ha":1000,"x_min":0,"x_max":0,"o":"m 607 615 b 681 501 682 615 678 565 l 694 90 b 761 0 696 46 707 0 b 826 100 821 0 828 53 l 813 519 b 753 700 810 592 813 649 b 624 749 697 749 650 749 l 535 749 b 415 704 490 749 450 726 l 307 633 l 307 932 b 240 1024 307 978 297 1024 b 174 932 183 1024 174 978 l 174 92 b 240 0 174 46 183 0 b 307 92 297 0 307 46 l 307 479 l 504 603 b 546 615 518 611 532 615 z "},"i":{"ha":1000,"x_min":0,"x_max":0,"o":"m 569 656 b 471 749 569 735 547 749 l 331 749 b 239 682 286 749 239 739 b 331 615 239 624 292 615 l 436 615 l 436 133 l 331 133 b 239 67 286 133 239 124 b 331 0 239 8 292 0 l 669 0 b 761 67 708 0 761 8 b 669 133 761 124 714 133 l 569 133 z m 368 954 b 431 892 368 907 394 892 l 507 892 b 569 954 543 892 569 907 l 569 1018 b 507 1081 569 1065 543 1081 l 431 1081 b 368 1018 394 1081 368 1065 z "},"j":{"ha":1000,"x_min":0,"x_max":0,"o":"m 761 656 b 663 749 761 735 739 749 l 467 749 b 375 682 422 749 375 739 b 467 615 375 624 428 615 l 628 615 l 628 -37 b 546 -150 628 -115 631 -150 l 458 -150 b 372 -94 408 -150 386 -144 b 304 -42 363 -61 340 -42 b 239 -107 269 -42 239 -71 b 315 -246 239 -157 276 -217 b 440 -283 358 -279 403 -283 l 551 -283 b 707 -225 596 -283 653 -283 b 761 -37 761 -168 761 -111 z m 560 954 b 622 892 560 907 586 892 l 699 892 b 761 954 735 892 761 907 l 761 1018 b 699 1081 761 1065 735 1081 l 622 1081 b 560 1018 586 1081 560 1065 z "},"k":{"ha":1000,"x_min":0,"x_max":0,"o":"m 307 438 l 307 932 b 240 1024 307 978 297 1024 b 174 932 183 1024 174 978 l 174 92 b 240 0 174 46 183 0 b 307 92 297 0 307 46 l 307 261 l 363 311 l 697 32 b 760 0 717 17 733 0 b 826 68 797 0 826 31 b 779 139 826 103 804 118 l 465 400 l 724 614 b 768 681 747 633 768 649 b 701 749 768 718 739 749 b 613 694 669 749 636 715 z "},"l":{"ha":1000,"x_min":0,"x_max":0,"o":"m 569 931 b 471 1024 569 1010 547 1024 l 331 1024 b 239 957 286 1024 239 1014 b 331 890 239 899 292 890 l 436 890 l 436 133 l 331 133 b 239 67 286 133 239 124 b 331 0 239 8 292 0 l 669 0 b 761 67 708 0 761 8 b 669 133 761 124 714 133 l 569 133 z "},"m":{"ha":1000,"x_min":0,"x_max":0,"o":"m 594 556 b 650 601 606 568 631 601 b 681 531 686 601 679 554 l 694 90 b 761 0 696 46 707 0 b 826 100 821 0 828 53 l 813 561 b 781 694 811 613 814 651 b 669 749 754 729 714 749 b 553 693 611 749 594 735 l 542 682 b 419 749 511 724 471 749 b 318 704 374 749 353 731 l 307 696 b 243 749 299 726 276 749 b 174 654 186 749 174 701 l 174 92 b 240 0 174 46 183 0 b 307 92 297 0 307 46 l 307 525 l 365 579 b 401 601 376 589 386 601 b 433 538 436 601 433 560 l 433 92 b 500 0 433 46 443 0 b 567 92 557 0 567 46 l 567 525 z "},"n":{"ha":1000,"x_min":0,"x_max":0,"o":"m 504 603 b 546 615 518 611 532 615 l 590 615 b 681 501 671 615 678 583 l 694 90 b 761 0 696 46 707 0 b 826 100 821 0 828 53 l 813 519 b 753 700 810 592 813 649 b 629 749 713 735 681 749 l 531 749 b 415 704 488 749 450 726 l 307 633 l 307 636 l 307 651 b 240 749 307 699 300 749 b 174 650 179 749 174 699 l 174 92 b 240 0 174 46 183 0 b 307 92 297 0 307 46 l 307 479 z "},"o":{"ha":1000,"x_min":0,"x_max":0,"o":"m 174 249 b 265 69 174 161 196 128 b 447 0 335 11 363 0 l 553 0 b 735 69 638 0 665 11 b 826 249 804 128 826 161 l 826 500 b 742 674 826 589 808 619 b 553 749 676 728 646 749 l 447 749 b 258 674 354 749 324 728 b 174 500 192 619 174 589 z m 307 500 b 356 579 307 528 317 546 b 447 615 385 604 406 615 l 553 615 b 644 579 594 615 615 604 b 693 500 683 546 693 528 l 693 249 b 644 169 693 221 683 203 b 553 133 615 144 594 133 l 447 133 b 356 169 406 133 385 144 b 307 249 317 203 307 221 z "},"p":{"ha":1000,"x_min":0,"x_max":0,"o":"m 826 432 b 742 625 826 526 819 564 l 661 688 b 550 749 625 715 582 749 l 458 749 b 333 668 421 749 368 699 l 307 644 l 307 661 b 240 749 307 706 294 749 b 174 650 179 749 174 697 l 174 -192 b 240 -283 174 -237 183 -283 b 307 -192 297 -283 307 -237 l 307 76 l 333 51 b 464 -28 376 11 404 -28 l 554 -28 b 661 32 590 -28 633 10 l 742 96 b 826 289 819 157 826 193 z m 693 271 b 665 213 693 246 686 231 l 565 129 b 519 106 553 118 538 106 l 485 106 b 428 143 468 106 447 124 l 326 239 b 307 296 313 251 307 276 l 307 426 b 344 497 307 456 317 471 l 428 576 b 485 615 442 590 465 615 l 519 615 b 565 592 538 615 553 603 l 665 508 b 693 450 686 490 693 475 z "},"q":{"ha":1000,"x_min":0,"x_max":0,"o":"m 826 656 b 760 749 826 701 817 749 b 693 660 706 749 693 704 l 693 651 l 663 681 b 535 749 621 721 579 749 l 419 749 b 292 701 364 749 333 738 l 246 663 b 174 508 190 615 174 579 l 174 240 b 246 86 174 169 190 133 l 292 47 b 419 0 335 11 363 0 l 538 0 b 669 74 597 0 633 38 l 693 97 l 693 -192 b 760 -283 693 -237 703 -283 b 826 -192 817 -283 826 -237 z m 693 290 b 653 232 693 261 672 249 l 576 167 b 510 133 551 146 539 133 l 429 133 b 360 163 404 133 383 143 b 307 240 329 188 307 207 l 307 508 b 360 586 307 542 329 561 b 429 615 383 606 404 615 l 510 615 b 576 582 539 615 551 604 l 653 517 b 693 457 672 500 693 488 z "},"r":{"ha":1000,"x_min":0,"x_max":0,"o":"m 174 92 b 240 0 174 46 183 0 b 307 92 297 0 307 46 l 307 429 l 493 583 b 560 615 517 603 535 615 l 599 615 b 679 592 631 615 663 615 b 693 533 693 572 693 556 b 761 451 693 490 713 451 b 826 544 818 451 826 499 b 767 696 826 606 811 651 b 636 749 731 732 688 749 l 529 749 b 411 692 488 749 449 722 l 307 606 l 307 660 b 240 749 307 704 293 749 b 174 650 179 749 174 699 z "},"s":{"ha":1000,"x_min":0,"x_max":0,"o":"m 604 615 b 686 589 640 615 664 613 b 743 561 703 571 718 561 b 811 628 779 561 811 590 b 758 703 811 665 783 682 b 604 749 708 744 678 749 l 376 749 b 193 579 276 749 193 685 b 310 417 193 493 236 450 l 624 274 b 693 207 654 260 693 239 b 582 133 693 129 629 133 l 401 133 b 294 163 360 133 318 136 b 243 186 279 179 264 186 b 174 119 206 186 174 157 b 235 42 174 86 210 61 b 401 0 285 3 332 0 l 607 0 b 826 199 735 0 826 64 b 696 388 826 294 782 349 l 363 539 b 326 578 343 547 326 556 b 401 615 326 621 374 615 z "},"t":{"ha":1000,"x_min":0,"x_max":0,"o":"m 442 615 l 665 615 b 757 682 704 615 757 624 b 665 749 757 739 710 749 l 442 749 l 442 885 b 375 976 442 931 432 976 b 308 885 318 976 308 931 l 308 749 l 265 749 b 174 682 221 749 174 739 b 265 615 174 624 226 615 l 308 615 l 308 253 b 357 67 308 181 306 124 b 529 0 404 15 463 0 l 597 0 b 781 68 668 0 732 10 b 826 179 803 94 826 142 b 758 246 826 217 796 246 b 692 192 725 246 700 224 b 599 133 678 138 653 133 l 531 133 b 442 251 439 133 442 176 z "},"u":{"ha":1000,"x_min":0,"x_max":0,"o":"m 826 657 b 760 749 826 703 817 749 b 693 657 703 749 693 703 l 693 269 l 497 146 b 456 133 485 138 471 133 l 411 133 b 333 161 379 133 344 142 b 319 247 322 181 321 217 l 306 657 b 240 749 304 700 297 749 b 174 649 179 749 172 697 l 188 229 b 249 49 190 157 189 100 b 372 0 293 11 335 0 l 471 0 b 586 44 507 0 543 17 l 694 115 l 694 93 b 761 0 694 47 704 0 b 826 99 832 0 826 68 z "},"v":{"ha":1000,"x_min":0,"x_max":0,"o":"m 500 139 l 307 582 l 307 650 b 239 749 307 697 299 749 b 174 668 192 749 174 711 l 174 574 b 189 519 174 551 179 540 l 388 83 b 457 0 400 56 424 0 l 543 0 b 613 83 576 0 600 56 l 811 519 b 826 574 821 540 826 551 l 826 668 b 761 749 826 711 808 749 b 693 650 701 749 693 697 l 693 582 z "},"w":{"ha":1000,"x_min":0,"x_max":0,"o":"m 567 431 b 500 524 567 476 557 524 b 433 431 443 524 433 476 l 433 308 l 361 185 l 319 308 l 306 653 b 239 749 304 699 296 749 b 174 653 181 749 172 699 l 188 282 l 253 85 b 321 0 267 44 274 0 l 372 0 b 428 43 396 0 415 25 l 500 151 l 572 43 b 628 0 585 25 604 0 l 679 0 b 747 85 726 0 733 44 l 813 282 l 826 653 b 761 749 828 699 819 749 b 694 653 704 749 696 699 l 681 308 l 639 185 l 567 308 z "},"x":{"ha":1000,"x_min":0,"x_max":0,"o":"m 206 132 b 174 69 190 113 174 94 b 240 0 174 32 203 0 b 331 69 281 0 307 40 l 500 278 l 669 69 b 760 0 693 40 719 0 b 826 69 797 0 826 32 b 794 132 826 94 810 113 l 590 374 l 794 615 b 826 678 810 635 826 653 b 760 749 826 715 797 749 b 669 678 719 749 693 707 l 500 469 l 331 678 b 240 749 307 707 281 749 b 174 678 203 749 174 715 b 206 615 174 653 190 635 l 410 374 z "},"y":{"ha":1000,"x_min":0,"x_max":0,"o":"m 515 188 l 486 188 l 307 581 l 307 657 b 240 749 307 703 297 749 b 174 657 183 749 174 703 l 174 597 b 206 488 174 558 188 528 l 369 125 b 449 54 390 79 393 54 l 456 54 l 357 -150 l 265 -150 b 174 -217 221 -150 174 -160 b 265 -283 174 -275 226 -283 l 368 -283 b 474 -214 429 -283 444 -276 l 810 518 b 826 603 824 547 826 569 l 826 657 b 760 749 826 703 817 749 b 693 657 703 749 693 703 l 693 581 z "},"z":{"ha":1000,"x_min":0,"x_max":0,"o":"m 199 176 b 174 113 175 154 174 144 l 174 78 b 272 0 174 39 179 0 l 735 0 b 826 67 774 0 826 8 b 735 133 826 124 779 133 l 340 133 l 788 560 b 826 635 818 589 826 608 l 826 679 b 736 749 826 726 804 749 l 303 749 b 211 682 258 749 211 739 b 303 615 211 624 264 615 l 658 615 z "},"{":{"ha":1000,"x_min":0,"x_max":0,"o":"m 569 139 l 569 386 b 514 540 569 444 556 494 b 569 693 557 583 569 633 l 569 942 l 774 942 b 843 1011 810 942 843 961 b 774 1081 843 1061 810 1081 l 585 1081 b 461 1029 533 1081 496 1071 b 431 925 432 994 431 968 l 431 706 b 339 610 431 633 413 610 l 226 610 b 157 540 190 610 157 590 b 226 471 157 490 190 471 l 339 471 b 431 375 413 471 431 447 l 431 156 b 461 51 431 113 432 86 b 585 0 496 10 533 0 l 774 0 b 843 69 810 0 843 19 b 774 139 843 119 810 139 z "},"|":{"ha":1000,"x_min":0,"x_max":0,"o":"m 569 -332 l 569 1129 l 431 1129 l 431 -332 z "},"}":{"ha":1000,"x_min":0,"x_max":0,"o":"m 226 139 b 157 69 190 139 157 119 b 226 0 157 19 190 0 l 415 0 b 539 51 467 0 504 10 b 569 156 568 86 569 113 l 569 375 b 661 471 569 447 588 471 l 774 471 b 843 540 810 471 843 490 b 774 610 843 590 810 610 l 661 610 b 569 706 588 610 569 633 l 569 925 b 539 1029 569 968 568 994 b 415 1081 504 1071 467 1081 l 226 1081 b 157 1011 190 1081 157 1061 b 226 942 157 961 190 942 l 431 942 l 431 693 b 486 540 431 633 443 583 b 431 386 444 494 431 444 l 431 139 z "},"~":{"ha":1000,"x_min":0,"x_max":0,"o":"m 458 681 b 354 724 431 708 397 724 l 239 724 b 124 603 169 724 124 674 l 124 482 b 193 415 124 438 143 414 b 263 485 244 415 263 440 l 263 571 b 279 588 263 582 268 588 l 331 588 b 382 558 353 588 364 576 l 542 400 b 646 357 569 372 603 357 l 761 357 b 876 478 831 357 876 407 l 876 599 b 807 665 876 643 857 667 b 738 596 756 665 738 640 l 738 510 b 721 493 738 499 732 493 l 669 493 b 618 522 647 493 636 504 z "},"¡":{"ha":1000,"x_min":0,"x_max":0,"o":"m 533 0 b 594 103 593 0 599 36 l 569 579 b 499 668 567 628 556 668 b 428 579 442 668 431 628 l 403 103 b 463 0 400 36 403 0 z m 517 886 b 594 965 569 886 594 913 l 594 1001 b 517 1081 594 1054 569 1081 l 481 1081 b 403 1001 428 1081 403 1054 l 403 965 b 481 886 403 913 428 886 z "},"¢":{"ha":1000,"x_min":0,"x_max":0,"o":"m 213 417 b 282 347 213 379 244 347 l 431 347 l 431 181 b 500 111 431 136 450 111 b 569 181 550 111 569 136 l 569 347 l 718 347 b 788 417 754 347 788 367 b 718 486 788 467 754 486 l 351 486 l 351 706 l 718 706 b 788 775 754 706 788 725 b 718 844 788 825 754 844 l 569 844 l 569 1011 b 500 1081 569 1056 550 1081 b 431 1011 450 1081 431 1056 l 431 844 l 282 844 b 213 775 244 844 213 813 z "},"£":{"ha":1000,"x_min":0,"x_max":0,"o":"m 456 139 l 551 472 l 774 472 b 843 542 810 472 843 492 b 774 611 843 592 810 611 l 592 611 l 674 894 b 731 942 681 918 693 942 l 774 942 b 843 1011 810 942 843 961 b 774 1081 843 1061 810 1081 l 724 1081 b 553 983 632 1081 569 1042 l 446 611 l 226 611 b 157 542 190 611 157 592 b 226 472 157 492 190 472 l 407 472 l 310 139 l 226 139 b 157 69 190 139 157 119 b 226 0 157 19 190 0 l 774 0 b 843 69 810 0 843 19 b 774 139 843 119 810 139 z "},"⁄":{"ha":1000,"x_min":0,"x_max":0,"o":"m 790 885 b 801 921 797 897 801 910 b 731 988 801 958 765 988 b 676 954 711 988 690 978 l 211 192 b 199 151 203 178 199 164 b 267 86 199 114 232 86 b 325 122 288 86 310 97 z "},"¥":{"ha":1000,"x_min":0,"x_max":0,"o":"m 568 492 l 568 519 l 836 983 b 808 1075 853 1013 829 1068 b 707 1039 761 1092 728 1075 l 499 679 l 290 1039 b 189 1075 269 1075 236 1092 b 161 983 168 1068 144 1013 l 429 519 l 429 492 l 225 492 b 156 422 189 492 156 472 b 225 353 156 372 189 353 l 429 353 l 429 69 b 499 0 429 25 449 0 b 568 69 549 0 568 25 l 568 353 l 772 353 b 842 422 808 353 842 372 b 772 492 842 472 808 492 z "},"ƒ":{"ha":1000,"x_min":0,"x_max":0,"o":"m 551 472 l 774 472 b 843 542 810 472 843 492 b 774 611 843 592 810 611 l 592 611 l 674 894 b 731 942 681 918 693 942 l 774 942 b 843 1011 810 942 843 961 b 774 1081 843 1061 810 1081 l 724 1081 b 553 983 632 1081 569 1042 l 446 611 l 226 611 b 157 542 190 611 157 592 b 226 472 157 492 190 472 l 407 472 l 240 -97 b 183 -144 233 -121 221 -144 l 140 -144 b 71 -214 104 -144 71 -164 b 140 -283 71 -264 104 -283 l 190 -283 b 361 -186 282 -283 344 -244 z "},"§":{"ha":1000,"x_min":0,"x_max":0,"o":"m 529 932 l 651 781 b 710 746 669 758 690 746 b 778 813 743 746 778 783 b 756 865 778 829 771 847 l 614 1040 b 536 1081 592 1067 565 1081 b 461 1050 511 1081 486 1071 l 328 942 b 281 853 297 917 281 885 b 306 789 281 831 290 808 l 356 725 l 235 628 b 175 526 194 596 175 563 b 218 426 175 496 189 463 l 606 -54 l 504 -135 l 382 17 b 324 51 364 39 343 51 b 256 -15 290 51 256 14 b 278 -68 256 -32 263 -50 l 419 -243 b 497 -283 442 -269 468 -283 b 572 -253 522 -283 547 -274 l 706 -144 b 753 -56 736 -119 753 -87 b 728 8 753 -33 743 -11 l 676 71 l 799 169 b 858 271 839 201 858 235 b 815 371 858 301 844 335 l 428 851 z m 721 276 l 593 175 l 313 521 l 440 622 z "},"¤":{"ha":1000,"x_min":0,"x_max":0,"o":"m 740 661 b 732 724 740 685 738 706 l 807 817 b 825 863 819 832 825 849 b 757 928 825 899 793 928 b 697 897 738 928 715 919 l 625 810 b 585 813 613 811 599 813 l 415 813 b 375 810 401 813 388 811 l 303 897 b 243 928 285 919 263 928 b 175 863 207 928 175 899 b 193 817 175 849 181 832 l 268 724 b 260 661 263 706 260 685 l 260 458 b 268 396 260 435 263 414 l 193 303 b 175 257 181 288 175 271 b 243 192 175 221 207 192 b 303 222 263 192 285 200 l 375 310 b 415 307 388 308 401 307 l 585 307 b 625 310 599 307 613 308 l 697 222 b 757 192 715 200 738 192 b 825 257 793 192 825 221 b 807 303 825 271 819 288 l 732 396 b 740 458 738 414 740 435 z m 399 689 l 601 689 l 601 431 l 399 431 z "},"'":{"ha":1000,"x_min":0,"x_max":0,"o":"m 632 1081 l 357 1081 l 357 1011 l 417 715 b 494 632 426 668 432 632 b 572 715 557 632 563 668 l 632 1011 z "},"“":{"ha":1000,"x_min":0,"x_max":0,"o":"m 446 988 b 369 1081 446 1043 432 1081 b 290 999 313 1081 303 1047 l 210 674 b 193 600 204 651 193 614 b 278 531 193 564 207 531 l 361 531 b 446 600 432 531 446 564 z m 807 988 b 731 1081 807 1043 793 1081 b 651 999 674 1081 664 1047 l 571 674 b 554 600 565 651 554 614 b 639 531 554 564 568 531 l 722 531 b 807 600 793 531 807 564 z "},"«":{"ha":1000,"x_min":0,"x_max":0,"o":"m 213 571 l 521 932 b 544 988 536 950 544 965 b 481 1049 544 1021 521 1049 b 417 1014 451 1049 433 1033 l 124 675 b 97 610 103 651 97 638 l 97 532 b 124 467 97 504 103 490 l 417 128 b 481 93 433 108 451 93 b 544 154 521 93 544 121 b 521 210 544 176 536 192 z m 553 571 l 861 932 b 885 988 876 950 885 965 b 821 1049 885 1021 861 1049 b 757 1014 792 1049 774 1033 l 464 675 b 438 610 443 651 438 638 l 438 532 b 464 467 438 504 443 490 l 757 128 b 821 93 774 108 792 93 b 885 154 861 93 885 121 b 861 210 885 176 876 192 z "},"‹":{"ha":1000,"x_min":0,"x_max":0,"o":"m 786 901 b 832 974 814 919 832 939 b 760 1049 832 1013 799 1049 b 700 1026 738 1049 717 1038 l 221 708 b 168 619 176 679 168 674 l 168 532 b 226 432 168 469 174 467 l 703 117 b 760 94 719 106 738 94 b 832 171 799 94 832 132 b 764 257 832 217 797 235 l 289 571 z "},"›":{"ha":1000,"x_min":0,"x_max":0,"o":"m 711 571 l 236 257 b 168 171 203 235 168 217 b 240 94 168 132 201 94 b 297 117 263 94 281 106 l 774 432 b 832 532 826 467 832 469 l 832 619 b 779 708 832 674 824 679 l 300 1026 b 240 1049 283 1038 263 1049 b 168 974 201 1049 168 1013 b 214 901 168 939 186 919 z "},"–":{"ha":1000,"x_min":0,"x_max":0,"o":"m 289 608 b 206 539 232 608 206 586 b 289 469 206 490 232 469 l 711 469 b 794 539 768 469 794 490 b 711 608 794 589 768 608 z "},"†":{"ha":1000,"x_min":0,"x_max":0,"o":"m 433 853 l 326 853 b 257 786 290 853 257 836 b 326 719 257 736 290 719 l 433 719 l 433 290 b 500 221 433 246 450 221 b 567 290 550 221 567 246 l 567 719 l 674 719 b 743 786 710 719 743 736 b 674 853 743 836 710 853 l 567 853 l 567 954 b 500 1024 567 999 550 1024 b 433 954 450 1024 433 999 z "},"‡":{"ha":1000,"x_min":0,"x_max":0,"o":"m 433 525 l 326 525 b 257 458 290 525 257 508 b 326 392 257 408 290 392 l 433 392 l 433 290 b 500 221 433 246 450 221 b 567 290 550 221 567 246 l 567 392 l 674 392 b 743 458 710 392 743 408 b 674 525 743 508 710 525 l 567 525 l 567 719 l 674 719 b 743 786 710 719 743 736 b 674 853 743 836 710 853 l 567 853 l 567 954 b 500 1024 567 999 550 1024 b 433 954 450 1024 433 999 l 433 853 l 326 853 b 257 786 290 853 257 836 b 326 719 257 736 290 719 l 433 719 z "},"·":{"ha":1000,"x_min":0,"x_max":0,"o":"m 550 411 b 622 438 581 411 603 411 b 638 500 638 458 638 474 l 638 578 b 622 640 638 604 638 619 b 550 667 603 667 581 667 l 450 667 b 378 640 419 667 397 667 b 363 578 363 619 363 604 l 363 500 b 378 438 363 474 363 458 b 450 411 397 411 419 411 z "},"¶":{"ha":1000,"x_min":0,"x_max":0,"o":"m 443 586 l 443 69 b 513 0 443 25 463 0 b 582 69 563 0 582 25 l 582 942 l 704 942 l 704 69 b 774 0 704 25 724 0 b 843 69 824 0 843 25 l 843 982 b 750 1081 843 1057 829 1081 l 207 1081 b 138 1011 168 1081 138 1047 l 138 656 b 207 586 138 619 168 586 z "},"•":{"ha":1000,"x_min":0,"x_max":0,"o":"m 736 663 b 688 742 736 690 726 708 b 596 778 658 767 638 778 l 404 778 b 313 742 363 778 342 767 b 264 663 274 708 264 690 l 264 411 b 313 332 264 383 274 365 b 404 296 342 307 363 296 l 596 296 b 688 332 638 296 658 307 b 736 411 726 365 736 383 z "},"‚":{"ha":1000,"x_min":0,"x_max":0,"o":"m 374 -190 b 450 -283 374 -246 388 -283 b 529 -201 507 -283 517 -250 l 610 124 b 626 197 615 146 626 183 b 542 267 626 233 613 267 l 458 267 b 374 197 388 267 374 233 z "},"„":{"ha":1000,"x_min":0,"x_max":0,"o":"m 193 -190 b 269 -283 193 -246 207 -283 b 349 -201 326 -283 336 -250 l 429 124 b 446 197 435 146 446 183 b 361 267 446 233 432 267 l 278 267 b 193 197 207 267 193 233 z m 554 -190 b 631 -283 554 -246 568 -283 b 710 -201 688 -283 697 -250 l 790 124 b 807 197 796 146 807 183 b 722 267 807 233 793 267 l 639 267 b 554 197 568 267 554 233 z "},"”":{"ha":1000,"x_min":0,"x_max":0,"o":"m 193 624 b 269 531 193 568 207 531 b 349 613 326 531 336 564 l 429 938 b 446 1011 435 960 446 997 b 361 1081 446 1047 432 1081 l 278 1081 b 193 1011 207 1081 193 1047 z m 554 624 b 631 531 554 568 568 531 b 710 613 688 531 697 564 l 790 938 b 807 1011 796 960 807 997 b 722 1081 807 1047 793 1081 l 639 1081 b 554 1011 568 1081 554 1047 z "},"»":{"ha":1000,"x_min":0,"x_max":0,"o":"m 788 571 l 479 210 b 456 154 464 192 456 176 b 519 93 456 121 479 93 b 583 128 549 93 567 108 l 876 467 b 903 532 897 490 903 504 l 903 610 b 876 675 903 638 897 651 l 583 1014 b 519 1049 567 1033 549 1049 b 456 988 479 1049 456 1021 b 479 932 456 965 464 950 z m 447 571 l 139 210 b 115 154 124 192 115 176 b 179 93 115 121 139 93 b 243 128 208 93 226 108 l 536 467 b 563 532 557 490 563 504 l 563 610 b 536 675 563 638 557 651 l 243 1014 b 179 1049 226 1033 208 1049 b 115 988 139 1049 115 1021 b 139 932 115 965 124 950 z "},"…":{"ha":1000,"x_min":0,"x_max":0,"o":"m 188 178 b 260 204 218 178 240 178 b 275 267 275 225 275 240 l 275 344 b 260 407 275 371 275 386 b 188 433 240 433 218 433 l 174 433 b 101 407 143 433 121 433 b 86 344 86 386 86 371 l 86 267 b 101 204 86 240 86 225 b 174 178 121 178 143 178 z m 507 178 b 579 204 538 178 560 178 b 594 267 594 225 594 240 l 594 344 b 579 407 594 371 594 386 b 507 433 560 433 538 433 l 493 433 b 421 407 463 433 440 433 b 406 344 406 386 406 371 l 406 267 b 421 204 406 240 406 225 b 493 178 440 178 463 178 z m 826 178 b 899 204 857 178 879 178 b 914 267 914 225 914 240 l 914 344 b 899 407 914 371 914 386 b 826 433 879 433 857 433 l 813 433 b 740 407 782 433 760 433 b 725 344 725 386 725 371 l 725 267 b 740 204 725 240 725 225 b 813 178 760 178 782 178 z "},"‰":{"ha":1000,"x_min":0,"x_max":0,"o":"m 671 865 b 686 911 681 878 686 894 b 619 981 686 951 657 981 b 561 951 599 981 576 974 l 54 211 b 39 164 44 199 39 181 b 107 96 39 124 68 96 b 158 118 128 96 147 104 z m 543 0 b 615 26 574 0 596 0 b 631 89 631 47 631 63 l 631 167 b 615 229 631 193 631 208 b 543 256 596 256 574 256 l 443 256 b 371 229 413 256 390 256 b 356 167 356 208 356 193 l 356 89 b 371 26 356 63 356 47 b 443 0 390 0 413 0 z m 247 825 b 319 851 278 825 300 825 b 335 914 335 872 335 888 l 335 992 b 319 1054 335 1018 335 1033 b 247 1081 300 1081 278 1081 l 147 1081 b 75 1054 117 1081 94 1081 b 60 992 60 1033 60 1018 l 60 914 b 75 851 60 888 60 872 b 147 825 94 825 117 825 z m 893 0 b 965 26 924 0 946 0 b 981 89 981 47 981 63 l 981 167 b 965 229 981 193 981 208 b 893 256 946 256 924 256 l 793 256 b 721 229 763 256 740 256 b 706 167 706 208 706 193 l 706 89 b 721 26 706 63 706 47 b 793 0 740 0 763 0 z "},"¿":{"ha":1000,"x_min":0,"x_max":0,"o":"m 296 271 l 665 592 b 707 672 700 621 707 625 l 707 775 b 638 844 707 819 688 844 b 568 775 588 844 568 819 l 568 690 l 200 372 b 157 285 163 339 157 335 l 157 208 b 193 125 157 163 157 156 l 307 28 b 364 0 326 11 338 0 b 421 28 389 0 404 13 l 789 342 b 843 418 811 361 843 385 b 774 490 843 457 814 490 b 715 463 751 490 732 476 l 364 161 l 296 219 z m 638 942 b 707 1013 675 942 707 975 b 638 1081 707 1050 675 1081 b 568 1013 599 1081 568 1050 b 638 942 568 974 599 942 z "},"`":{"ha":1000,"x_min":0,"x_max":0,"o":"m 350 1074 b 322 1081 343 1078 332 1081 b 249 992 282 1081 246 1032 b 278 947 250 974 258 957 l 543 817 b 568 810 551 813 560 810 b 629 881 603 810 629 847 b 603 928 629 899 622 917 z "},"´":{"ha":1000,"x_min":0,"x_max":0,"o":"m 397 928 b 371 881 378 917 371 899 b 432 810 371 847 397 810 b 457 817 440 810 449 813 l 722 947 b 751 992 742 957 750 974 b 678 1081 754 1032 718 1081 b 650 1074 668 1081 657 1078 z "},"ˆ":{"ha":1000,"x_min":0,"x_max":0,"o":"m 265 924 b 239 875 247 910 239 892 b 303 813 239 842 268 813 b 342 826 315 813 329 818 l 500 939 l 658 826 b 697 813 671 818 685 813 b 761 875 732 813 761 842 b 735 924 761 892 753 910 l 564 1058 b 500 1081 544 1074 525 1081 b 436 1058 475 1081 456 1074 z "},"˜":{"ha":1000,"x_min":0,"x_max":0,"o":"m 336 1068 b 304 1072 329 1069 314 1072 b 238 1018 274 1072 250 1056 l 214 940 b 210 911 211 931 210 919 b 279 850 210 872 244 850 b 340 903 306 850 326 864 l 351 933 l 664 868 b 696 864 671 867 686 864 b 763 918 726 864 750 881 l 786 996 b 790 1025 789 1006 790 1017 b 721 1086 790 1064 756 1086 b 660 1033 694 1086 674 1072 l 649 1003 z "},"¯":{"ha":1000,"x_min":0,"x_max":0,"o":"m 314 1024 b 250 957 271 1024 250 1007 b 314 889 250 908 271 889 l 688 889 b 750 957 731 889 750 908 b 688 1024 750 1007 731 1024 z "},"˘":{"ha":1000,"x_min":0,"x_max":0,"o":"m 613 858 b 704 899 644 858 676 867 l 744 947 b 771 1004 761 968 771 989 b 703 1061 771 1036 733 1061 b 658 1039 688 1061 669 1053 l 642 1019 b 556 983 613 985 603 983 l 444 983 b 358 1019 397 983 388 985 l 342 1039 b 297 1061 331 1053 313 1061 b 229 1004 267 1061 229 1036 b 256 947 229 989 239 968 l 296 899 b 388 858 324 867 356 858 z "},"˙":{"ha":1000,"x_min":0,"x_max":0,"o":"m 368 954 b 431 892 368 907 394 892 l 507 892 b 569 954 543 892 569 907 l 569 1018 b 507 1081 569 1065 543 1081 l 431 1081 b 368 1018 394 1081 368 1065 z "},"¨":{"ha":1000,"x_min":0,"x_max":0,"o":"m 388 994 b 318 1081 388 1042 368 1081 b 249 994 268 1081 249 1042 l 249 908 b 318 824 249 867 267 824 b 388 908 369 824 388 867 z m 742 994 b 672 1081 742 1042 722 1081 b 603 994 622 1081 603 1042 l 603 908 b 672 824 603 867 621 824 b 742 908 724 824 742 867 z "},"˚":{"ha":1000,"x_min":0,"x_max":0,"o":"m 735 929 b 579 1081 735 1031 682 1081 l 421 1081 b 265 929 318 1081 265 1031 l 265 861 b 421 710 265 760 318 710 l 579 710 b 735 861 682 710 735 760 z m 596 833 l 404 833 l 404 957 l 596 957 z "},"¸":{"ha":1000,"x_min":0,"x_max":0,"o":"m 522 14 l 522 -154 l 403 -154 b 333 -218 358 -154 333 -174 b 403 -283 333 -264 358 -283 l 563 -283 b 651 -200 618 -283 651 -257 l 651 14 z "},"˝":{"ha":1000,"x_min":0,"x_max":0,"o":"m 557 913 b 544 879 547 901 544 890 b 613 810 544 843 576 810 b 650 828 628 810 639 817 l 789 968 b 804 1006 800 979 804 992 b 722 1081 804 1046 758 1081 b 681 1063 707 1081 690 1072 z m 310 907 b 299 878 303 896 299 888 b 368 810 299 843 331 810 b 408 829 385 810 397 815 l 529 974 b 540 1006 538 985 540 994 b 456 1081 540 1047 493 1081 b 413 1057 438 1081 422 1071 z "},"˛":{"ha":1000,"x_min":0,"x_max":0,"o":"m 371 14 l 371 -200 b 460 -283 371 -257 404 -283 l 619 -283 b 689 -218 664 -283 689 -264 b 619 -154 689 -174 664 -154 l 500 -154 l 500 14 z "},"ˇ":{"ha":1000,"x_min":0,"x_max":0,"o":"m 500 954 l 342 1067 b 303 1081 329 1075 315 1081 b 239 1018 268 1081 239 1051 b 265 969 239 1001 247 983 l 436 835 b 500 813 456 819 475 813 b 564 835 525 813 544 819 l 735 969 b 761 1018 753 983 761 1001 b 697 1081 761 1051 732 1081 b 658 1067 685 1081 671 1075 z "},"—":{"ha":1000,"x_min":0,"x_max":0,"o":"m 131 608 b 47 539 74 608 47 586 b 131 469 47 490 74 469 l 869 469 b 953 539 926 469 953 490 b 869 608 953 589 926 608 z "},"Æ":{"ha":1000,"x_min":0,"x_max":0,"o":"m 639 471 l 774 471 b 843 540 810 471 843 490 b 774 610 843 590 810 610 l 639 610 l 639 942 l 774 942 b 843 1011 810 942 843 961 b 774 1081 843 1061 810 1081 l 569 1081 b 488 1011 526 1081 503 1056 l 163 100 b 207 0 150 64 156 11 b 294 56 258 -11 283 24 l 385 306 l 500 306 l 500 69 b 568 0 500 19 532 0 l 774 0 b 843 69 810 0 843 19 b 774 139 843 119 810 139 l 639 139 z m 500 444 l 435 444 l 494 610 l 500 610 z "},"ª":{"ha":1000,"x_min":0,"x_max":0,"o":"m 531 947 b 608 872 594 947 608 939 l 608 863 l 400 863 b 269 819 353 863 310 854 b 214 690 228 782 214 744 l 214 647 b 274 508 214 590 228 547 b 400 468 314 476 351 468 l 476 468 b 551 490 503 468 521 475 l 625 528 b 689 468 635 489 658 468 b 751 543 733 468 753 506 l 740 896 b 690 1029 739 953 735 985 b 546 1081 644 1075 603 1081 l 403 1081 b 318 1013 361 1081 318 1068 b 403 947 318 954 367 947 z m 556 729 b 615 668 601 729 615 715 l 615 656 l 510 601 l 401 601 b 347 629 382 601 347 606 l 347 697 b 403 729 347 725 381 729 z "},"Ł":{"ha":1000,"x_min":0,"x_max":0,"o":"m 338 451 l 625 592 b 668 654 654 607 668 631 b 600 725 668 690 640 725 b 565 717 589 725 578 722 l 338 606 l 338 1011 b 268 1081 338 1056 318 1081 b 199 1011 218 1081 199 1056 l 199 538 l 71 476 b 28 414 40 463 28 438 b 97 343 28 378 57 343 b 132 351 108 343 119 346 l 199 383 l 199 0 l 815 0 b 885 69 851 0 885 19 b 815 139 885 119 851 139 l 338 139 z "},"Ø":{"ha":1000,"x_min":0,"x_max":0,"o":"m 194 697 b 157 546 169 647 157 603 b 194 389 157 485 168 443 l 257 261 l 186 140 b 157 67 172 118 157 93 b 225 0 157 31 189 0 b 294 50 260 0 278 21 l 331 113 b 500 0 360 44 426 0 b 668 114 582 0 635 46 l 804 389 b 843 539 826 435 843 486 b 801 697 843 600 828 643 l 740 822 l 825 965 b 842 1014 833 981 842 997 b 775 1081 842 1050 810 1081 b 685 997 725 1081 706 1035 l 667 965 b 500 1081 638 1032 574 1081 b 329 963 417 1081 365 1032 z m 583 824 l 339 404 l 332 417 b 296 543 311 463 296 493 b 328 650 296 583 310 615 l 453 900 b 500 942 463 921 471 942 b 546 900 528 942 533 922 z m 658 679 l 668 657 b 704 544 683 622 704 583 b 674 433 704 501 693 471 l 546 179 b 500 139 536 158 528 139 b 449 185 469 139 460 161 l 414 257 z "},"Œ":{"ha":1000,"x_min":0,"x_max":0,"o":"m 774 0 b 843 69 810 0 843 19 b 774 139 843 119 810 139 l 639 139 l 639 471 l 774 471 b 843 540 810 471 843 490 b 774 610 843 590 810 610 l 639 610 l 639 942 l 774 942 b 843 1011 810 942 843 961 b 774 1081 843 1061 810 1081 l 500 1081 b 332 967 422 1081 365 1032 l 193 690 b 157 536 167 636 157 596 b 203 371 157 469 175 428 l 331 115 b 500 0 364 49 419 0 z m 500 139 b 453 181 472 139 463 161 l 319 444 b 296 536 304 475 296 500 b 328 649 296 582 307 608 l 453 900 b 500 942 464 922 471 942 z "},"º":{"ha":1000,"x_min":0,"x_max":0,"o":"m 232 676 b 308 525 232 604 250 575 b 458 468 365 479 389 468 l 551 468 b 701 525 621 468 644 479 b 778 676 760 575 778 604 l 778 872 b 707 1019 778 946 763 972 b 551 1081 654 1063 629 1081 l 458 1081 b 303 1019 381 1081 356 1063 b 232 872 247 972 232 946 z m 364 872 b 397 924 364 889 369 900 b 458 949 418 942 432 949 l 551 949 b 613 924 578 949 592 942 b 646 872 640 900 646 889 l 646 676 b 613 625 646 660 640 649 b 551 600 592 607 578 600 l 458 600 b 397 625 432 600 418 607 b 364 676 369 649 364 660 z "},"æ":{"ha":1000,"x_min":0,"x_max":0,"o":"m 475 53 l 511 18 b 568 0 531 0 540 0 l 822 0 b 881 68 847 0 881 10 b 822 135 881 125 850 135 l 638 133 b 582 153 614 133 601 135 b 557 190 564 169 557 176 l 557 278 l 822 278 b 881 376 872 278 881 300 l 881 525 b 835 671 881 588 875 631 l 800 708 b 704 749 767 743 749 749 l 601 749 b 513 714 568 749 551 747 l 488 690 b 318 749 438 742 388 749 l 235 749 b 143 682 190 749 143 739 b 235 615 143 624 196 615 l 300 615 b 418 499 396 615 418 599 l 418 468 l 278 468 b 90 301 168 468 90 401 l 90 174 b 279 0 90 63 179 0 l 329 0 b 411 19 372 0 382 4 z m 676 615 b 718 589 690 615 697 610 b 742 542 739 568 742 556 l 742 411 l 557 411 l 557 551 b 578 593 557 568 558 574 b 625 615 594 610 603 615 z m 385 335 b 425 288 417 335 425 319 l 425 172 l 353 133 l 304 133 b 229 196 272 133 229 146 l 229 276 b 303 335 229 325 267 335 z "},"ı":{"ha":1000,"x_min":0,"x_max":0,"o":"m 569 656 b 471 749 569 735 547 749 l 331 749 b 239 682 286 749 239 739 b 331 615 239 624 292 615 l 436 615 l 436 133 l 331 133 b 239 67 286 133 239 124 b 331 0 239 8 292 0 l 669 0 b 761 67 708 0 761 8 b 669 133 761 124 714 133 l 569 133 z "},"ł":{"ha":1000,"x_min":0,"x_max":0,"o":"m 233 478 b 190 418 204 464 190 440 b 258 351 190 385 219 351 b 297 363 271 351 283 356 l 436 432 l 436 133 l 331 133 b 239 67 286 133 239 124 b 331 0 239 8 292 0 l 669 0 b 761 67 708 0 761 8 b 669 133 761 124 714 133 l 569 133 l 569 500 l 774 604 b 819 668 806 621 819 646 b 753 731 819 701 792 731 b 713 721 740 731 726 728 l 569 647 l 569 931 b 471 1024 569 1010 547 1024 l 331 1024 b 239 957 286 1024 239 1014 b 331 890 239 899 292 890 l 436 890 l 436 581 z "},"ø":{"ha":1000,"x_min":0,"x_max":0,"o":"m 142 115 b 118 64 125 99 118 81 b 182 0 118 29 147 0 b 239 25 200 0 221 7 l 275 61 b 447 0 338 10 367 0 l 553 0 b 735 69 638 0 665 11 b 826 249 804 128 826 161 l 826 500 b 813 590 826 539 822 567 l 853 629 b 881 685 872 647 881 667 b 814 749 881 721 850 749 b 758 724 796 749 776 740 l 722 689 b 553 749 669 731 636 749 l 447 749 b 258 674 354 749 324 728 b 174 500 192 619 174 589 l 174 249 b 188 160 174 211 178 183 z m 644 169 b 553 133 615 144 594 133 l 447 133 b 372 156 414 133 393 140 l 693 472 l 693 249 b 644 169 693 221 683 203 z m 307 500 b 356 579 307 528 317 546 b 447 615 385 604 406 615 l 553 615 b 626 593 585 615 606 608 l 307 278 z "},"œ":{"ha":1000,"x_min":0,"x_max":0,"o":"m 822 0 b 881 68 847 0 881 10 b 822 135 881 125 850 135 l 635 133 b 579 153 611 133 599 135 b 554 190 561 169 554 176 l 554 278 l 822 278 b 881 376 872 278 881 300 l 881 525 b 835 671 881 588 875 631 l 800 708 b 704 749 767 743 749 749 l 601 749 b 513 714 568 749 551 747 l 488 690 l 463 714 b 361 749 439 736 418 749 l 285 749 b 150 688 218 749 196 733 b 90 549 104 643 90 619 l 90 169 b 150 47 90 110 104 88 b 267 0 194 7 213 0 l 389 0 b 454 18 426 0 440 6 l 483 44 l 511 18 b 568 0 531 0 540 0 z m 224 535 b 247 596 224 564 224 571 b 303 615 264 611 271 615 l 360 615 b 399 594 376 615 385 608 b 421 550 413 579 421 571 l 421 190 b 401 156 421 178 414 168 b 358 133 386 139 376 133 l 290 133 b 242 151 267 133 261 132 b 224 193 226 167 224 176 z m 682 615 b 724 589 696 615 703 610 b 747 542 744 568 747 556 l 747 411 l 554 411 l 554 551 b 575 593 554 568 556 574 b 622 615 592 610 600 615 z "},"ß":{"ha":1000,"x_min":0,"x_max":0,"o":"m 494 1024 b 289 957 413 1024 353 1018 b 225 767 229 899 225 843 l 225 749 l 188 749 b 96 682 143 749 96 739 b 188 615 96 624 149 615 l 225 615 l 225 92 b 292 0 225 46 235 0 b 358 92 349 0 358 46 l 358 775 b 486 890 358 872 396 890 l 569 890 b 647 803 626 890 647 869 l 647 749 l 614 749 b 472 613 529 749 472 699 b 524 490 472 571 488 531 l 721 290 b 785 193 772 235 785 222 b 700 133 785 157 760 133 l 657 133 b 561 163 614 133 585 136 b 510 186 546 179 531 186 b 440 119 472 186 440 157 b 501 42 440 86 475 60 b 656 0 556 4 608 0 l 701 0 b 925 199 864 0 925 88 b 821 379 925 272 875 319 l 664 535 b 610 606 649 551 610 592 b 640 629 610 619 615 629 l 665 629 b 781 760 760 629 781 665 l 781 865 b 594 1024 781 936 713 1024 z "},"¬":{"ha":1000,"x_min":0,"x_max":0,"o":"m 732 633 l 732 336 b 801 267 732 292 751 267 b 871 336 851 267 871 292 l 871 683 b 849 753 871 713 871 732 b 788 772 828 772 813 772 l 171 772 b 101 703 135 772 101 753 b 171 633 101 653 135 633 z "},"µ":{"ha":1000,"x_min":0,"x_max":0,"o":"m 800 657 b 733 749 800 703 790 749 b 667 657 676 749 667 703 l 667 269 l 471 146 b 429 133 458 138 444 133 l 392 133 b 292 286 336 133 296 201 l 279 657 b 214 749 278 700 271 749 b 147 649 153 749 146 697 l 164 118 l 164 -210 b 228 -283 165 -262 194 -283 b 297 -206 264 -283 297 -261 l 297 54 l 300 54 b 426 0 326 25 358 0 l 444 0 b 560 44 481 0 517 17 l 668 115 l 668 113 b 796 0 668 56 699 0 l 883 0 b 883 133 967 0 967 133 l 800 133 z "},"™":{"ha":1000,"x_min":0,"x_max":0,"o":"m 83 1081 b 83 947 -4 1081 -4 947 l 163 947 l 163 533 b 228 468 163 492 196 468 b 293 533 260 468 293 492 l 293 947 l 372 947 b 372 1081 460 947 460 1081 z m 740 715 b 789 746 764 715 779 728 l 849 853 l 856 853 l 856 533 b 922 468 856 494 882 468 b 989 533 958 468 989 494 l 989 1081 l 871 1081 l 740 849 l 610 1081 l 492 1081 l 492 533 b 558 468 492 494 522 468 b 625 533 599 468 625 494 l 625 853 l 632 853 l 692 746 b 740 715 701 728 717 715 z "},"Ð":{"ha":1000,"x_min":0,"x_max":0,"o":"m 293 139 l 226 139 b 157 69 190 139 157 119 b 226 0 157 19 190 0 l 457 0 b 676 131 565 0 628 32 l 803 383 b 843 536 828 433 843 481 b 801 697 843 600 829 640 l 679 942 b 469 1081 632 1036 578 1081 l 238 1081 b 157 1011 194 1081 157 1061 b 242 942 157 958 196 942 l 293 942 l 293 613 l 226 613 b 157 543 190 613 157 593 b 226 474 157 493 190 474 l 293 474 z m 504 474 b 574 543 540 474 574 493 b 504 613 574 593 540 613 l 432 613 l 432 942 l 449 942 b 554 883 513 942 525 943 l 669 649 b 704 535 689 608 704 582 b 678 444 704 500 693 476 l 556 197 b 458 139 531 146 517 139 l 432 139 l 432 474 z "},"½":{"ha":1000,"x_min":0,"x_max":0,"o":"m 778 885 b 789 921 785 897 789 910 b 718 988 789 958 753 988 b 664 954 699 988 678 978 l 199 192 b 186 151 190 178 186 164 b 254 86 186 114 219 86 b 313 122 275 86 297 97 z m 286 468 b 354 536 321 468 354 485 b 286 601 354 586 321 601 l 274 601 l 274 1081 l 85 1081 b 17 1014 50 1081 17 1064 b 85 947 17 963 50 947 l 140 947 l 140 601 l 126 601 b 58 535 92 601 58 586 b 126 468 58 485 92 468 z m 760 243 l 863 243 b 938 269 893 243 913 247 b 969 353 967 296 969 321 l 969 501 b 936 586 969 535 964 563 b 863 613 913 608 892 613 l 694 613 b 626 546 660 613 626 596 b 694 479 626 494 660 479 l 836 479 l 836 376 l 735 376 b 626 268 663 376 626 338 l 626 0 l 901 0 b 969 67 936 0 969 17 b 901 133 969 118 936 133 l 760 133 z "},"±":{"ha":1000,"x_min":0,"x_max":0,"o":"m 431 735 l 226 735 b 157 665 190 735 157 715 b 226 596 157 615 190 596 l 431 596 l 431 419 b 500 350 431 375 450 350 b 569 419 550 350 569 375 l 569 596 l 774 596 b 843 665 810 596 843 615 b 774 735 843 715 810 735 l 569 735 l 569 914 b 500 983 569 958 550 983 b 431 914 450 983 431 958 z m 231 260 b 157 193 174 260 157 226 b 231 125 157 160 174 125 l 765 125 b 843 193 825 125 843 160 b 765 260 843 226 825 260 z "},"Þ":{"ha":1000,"x_min":0,"x_max":0,"o":"m 296 1011 b 226 1081 296 1056 276 1081 b 157 1011 176 1081 157 1056 l 157 69 b 226 0 157 25 176 0 b 296 69 276 0 296 25 l 296 256 l 600 256 b 786 322 675 256 732 261 b 843 500 838 379 843 429 l 843 600 b 778 782 843 675 838 726 b 618 839 728 829 682 839 l 296 839 z m 296 700 l 604 700 b 704 600 686 700 704 679 l 704 494 b 604 394 704 415 686 394 l 296 394 z "},"¼":{"ha":1000,"x_min":0,"x_max":0,"o":"m 768 885 b 779 921 775 897 779 910 b 708 988 779 958 743 988 b 654 954 689 988 668 978 l 189 192 b 176 151 181 178 176 164 b 244 86 176 114 210 86 b 303 122 265 86 288 97 z m 283 468 b 351 536 318 468 351 485 b 283 601 351 586 318 601 l 271 601 l 271 1081 l 82 1081 b 14 1014 47 1081 14 1064 b 82 947 14 963 47 947 l 138 947 l 138 601 l 124 601 b 56 535 89 601 56 586 b 124 468 56 485 89 468 z m 742 329 l 742 544 b 676 613 742 579 729 613 b 608 544 625 613 608 579 l 608 196 l 818 196 l 818 68 b 885 0 818 25 836 0 b 951 68 935 0 951 25 l 951 204 b 997 265 979 214 997 235 b 951 326 997 297 978 317 l 951 490 b 885 560 951 526 938 560 b 818 490 833 560 818 526 l 818 329 z "},"÷":{"ha":1000,"x_min":0,"x_max":0,"o":"m 229 607 b 156 540 172 607 156 574 b 229 472 156 507 172 472 l 767 472 b 844 540 826 472 844 507 b 767 607 844 574 826 607 z m 538 707 b 589 725 558 707 575 707 b 600 771 600 740 600 753 l 600 826 b 589 872 600 846 600 857 b 538 892 575 892 558 892 l 465 892 b 413 872 442 892 426 892 b 401 826 401 857 401 846 l 401 771 b 413 725 401 753 401 740 b 465 707 426 707 442 707 z m 538 188 b 589 206 558 188 575 188 b 600 251 600 221 600 233 l 600 307 b 589 353 600 326 600 338 b 538 372 575 372 558 372 l 465 372 b 413 353 442 372 426 372 b 401 307 401 338 401 326 l 401 251 b 413 206 401 233 401 221 b 465 188 426 188 442 188 z "},"¦":{"ha":1000,"x_min":0,"x_max":0,"o":"m 569 532 l 569 1129 l 431 1129 l 431 532 z m 569 -332 l 569 265 l 431 265 l 431 -332 z "},"°":{"ha":1000,"x_min":0,"x_max":0,"o":"m 763 929 b 607 1081 763 1031 710 1081 l 393 1081 b 238 929 290 1081 238 1031 l 238 638 b 393 486 238 536 290 486 l 607 486 b 763 638 710 486 763 536 z m 624 610 l 376 610 l 376 957 l 624 957 z "},"þ":{"ha":1000,"x_min":0,"x_max":0,"o":"m 826 432 b 742 625 826 526 819 564 l 661 688 b 550 749 625 715 582 749 l 307 749 l 307 936 b 240 1024 307 981 294 1024 b 174 925 179 1024 174 972 l 174 -192 b 240 -283 174 -237 183 -283 b 307 -192 297 -283 307 -237 l 307 0 l 554 0 b 661 60 590 0 633 38 l 742 124 b 826 317 819 185 826 221 z m 693 299 b 665 240 693 274 686 258 l 565 157 b 519 133 553 146 538 133 l 307 133 l 307 615 l 519 615 b 565 592 538 615 553 603 l 665 508 b 693 450 686 490 693 475 z "},"¾":{"ha":1000,"x_min":0,"x_max":0,"o":"m 763 885 b 774 921 769 897 774 910 b 703 988 774 958 738 988 b 649 954 683 988 663 978 l 183 192 b 171 151 175 178 171 164 b 239 86 171 114 204 86 b 297 122 260 86 282 97 z m 224 711 l 224 601 l 86 601 b 17 535 50 601 17 586 b 86 468 17 485 50 468 l 257 468 b 357 568 315 468 357 510 l 357 981 b 257 1081 357 1039 315 1081 l 86 1081 b 17 1014 50 1081 17 1064 b 86 947 17 963 50 947 l 224 947 l 224 844 l 147 844 b 78 778 111 844 78 826 b 147 711 78 728 111 711 z m 742 329 l 742 544 b 676 613 742 579 729 613 b 608 544 625 613 608 579 l 608 196 l 818 196 l 818 68 b 885 0 818 25 836 0 b 951 68 935 0 951 25 l 951 204 b 997 265 979 214 997 235 b 951 326 997 297 978 317 l 951 490 b 885 560 951 526 938 560 b 818 490 833 560 818 526 l 818 329 z "},"®":{"ha":1000,"x_min":0,"x_max":0,"o":"m 331 646 l 397 646 b 492 588 438 646 492 639 l 492 528 b 397 472 492 476 433 472 l 331 472 z m 669 0 b 824 78 728 0 788 33 b 865 239 867 131 865 174 l 865 822 b 704 1061 865 936 813 1018 b 583 1081 656 1081 632 1081 l 425 1081 b 243 1024 354 1081 300 1072 b 164 893 210 996 164 939 b 231 831 164 857 194 831 b 307 900 275 831 289 867 b 421 947 332 946 375 947 l 597 947 b 714 899 644 947 686 940 b 732 794 736 865 732 833 l 732 257 b 667 133 732 207 739 133 l 646 133 l 493 360 b 625 529 567 378 625 432 l 625 599 b 438 779 625 713 539 779 l 197 779 l 197 119 b 264 56 197 78 219 56 b 331 119 313 56 331 78 l 331 339 l 351 339 l 538 57 b 654 0 567 21 596 0 z "},"−":{"ha":1000,"x_min":0,"x_max":0,"o":"m 236 611 b 163 542 179 611 163 575 b 236 472 163 508 179 472 l 760 472 b 838 542 819 472 838 508 b 760 611 838 575 819 611 z "},"ð":{"ha":1000,"x_min":0,"x_max":0,"o":"m 154 783 b 122 724 132 765 122 743 b 188 660 122 689 150 660 b 238 679 203 660 221 667 l 325 747 l 411 678 l 351 635 l 319 611 b 235 418 242 550 235 513 l 235 275 b 319 82 235 179 242 143 l 349 60 b 456 0 376 38 419 0 l 564 0 b 671 60 600 0 643 38 l 703 85 b 788 278 781 146 788 182 l 788 421 b 703 614 788 515 781 553 l 435 833 l 521 901 b 553 961 543 919 553 942 b 489 1024 553 996 525 1024 b 436 1004 472 1024 454 1018 l 329 919 l 219 1010 b 182 1024 208 1019 194 1024 b 110 951 144 1024 110 988 b 132 907 110 936 118 919 l 219 835 z m 532 563 b 565 549 544 563 556 556 l 626 497 b 654 439 647 479 654 464 l 654 260 b 626 201 654 235 647 219 l 575 157 b 529 133 563 146 547 133 l 490 133 b 444 157 472 133 457 146 l 396 199 b 368 257 375 217 368 232 l 368 436 b 396 494 368 461 375 476 l 447 539 b 493 563 460 550 475 563 z "},"×":{"ha":1000,"x_min":0,"x_max":0,"o":"m 500 633 l 326 807 b 269 832 308 825 288 832 b 204 769 233 832 204 804 b 231 711 204 751 211 731 l 404 539 l 229 365 b 204 310 211 347 204 328 b 271 244 204 274 236 244 b 325 269 289 244 307 251 l 500 443 l 675 269 b 729 244 693 251 711 244 b 796 310 764 244 796 274 b 771 365 796 328 789 347 l 596 539 l 769 711 b 796 769 789 731 796 751 b 731 832 796 804 767 832 b 674 807 713 832 692 825 z "},"©":{"ha":1000,"x_min":0,"x_max":0,"o":"m 669 0 b 824 78 728 0 788 33 b 865 239 867 131 865 174 l 865 822 b 704 1061 865 936 813 1018 b 583 1081 656 1081 632 1081 l 425 1081 b 243 1024 354 1081 300 1072 b 164 893 210 996 164 939 b 231 831 164 857 194 831 b 307 900 275 831 289 867 b 421 947 332 946 375 947 l 597 947 b 714 899 644 947 686 940 b 732 794 736 865 732 833 l 732 257 b 667 133 732 207 739 133 l 421 133 b 307 181 375 133 332 135 b 231 250 289 214 275 250 b 164 188 194 250 164 224 b 243 57 164 142 210 85 b 425 0 300 8 354 0 z m 467 369 b 381 419 417 369 401 376 l 363 457 b 340 533 350 483 340 504 b 365 622 340 568 349 589 l 385 661 b 464 708 407 704 415 708 l 543 708 b 610 775 574 708 610 726 b 543 842 610 825 572 842 l 460 842 b 267 722 365 842 310 807 l 231 649 b 207 533 217 619 207 578 b 233 417 207 496 217 450 l 264 354 b 451 236 301 278 361 236 l 543 236 b 610 303 574 236 610 254 b 543 369 610 353 572 369 z "},"Á":{"ha":1000,"x_min":0,"x_max":0,"o":"m 650 176 l 699 69 b 774 0 708 36 731 0 b 840 69 813 0 850 36 l 572 782 b 500 844 560 814 542 844 b 429 782 457 844 443 817 l 160 69 b 226 0 147 38 188 0 b 301 69 269 0 292 36 l 350 176 z m 600 315 l 400 315 l 500 583 z m 360 1018 b 326 969 340 1010 326 990 b 379 897 326 933 350 897 b 406 903 388 897 397 900 l 686 999 b 719 1057 714 1011 719 1032 b 650 1136 719 1096 688 1136 b 619 1129 642 1136 631 1135 z "},"Â":{"ha":1000,"x_min":0,"x_max":0,"o":"m 650 176 l 699 69 b 774 0 708 36 731 0 b 840 69 813 0 850 36 l 572 782 b 500 844 560 814 542 844 b 429 782 457 844 443 817 l 160 69 b 226 0 147 38 188 0 b 301 69 269 0 292 36 l 350 176 z m 600 315 l 400 315 l 500 583 z m 500 1004 l 683 914 b 718 906 697 907 706 906 b 778 968 751 906 778 935 b 744 1021 778 990 765 1010 l 567 1124 b 500 1143 544 1136 521 1143 b 433 1124 479 1143 456 1136 l 256 1021 b 222 968 235 1010 222 990 b 282 906 222 935 249 906 b 317 914 294 906 303 907 z "},"Ä":{"ha":1000,"x_min":0,"x_max":0,"o":"m 650 176 l 699 69 b 774 0 708 36 731 0 b 840 69 813 0 850 36 l 572 782 b 500 844 560 814 542 844 b 429 782 457 844 443 817 l 160 69 b 226 0 147 38 188 0 b 301 69 269 0 292 36 l 350 176 z m 600 315 l 400 315 l 500 583 z m 296 994 b 226 1081 296 1042 276 1081 b 157 994 176 1081 157 1042 l 157 908 b 226 824 157 867 175 824 b 296 908 278 824 296 867 z m 843 994 b 774 1081 843 1042 824 1081 b 704 994 724 1081 704 1042 l 704 908 b 774 824 704 867 722 824 b 843 908 825 824 843 867 z "},"À":{"ha":1000,"x_min":0,"x_max":0,"o":"m 650 176 l 699 69 b 774 0 708 36 731 0 b 840 69 813 0 850 36 l 572 782 b 500 844 560 814 542 844 b 429 782 457 844 443 817 l 160 69 b 226 0 147 38 188 0 b 301 69 269 0 292 36 l 350 176 z m 600 315 l 400 315 l 500 583 z m 357 1129 b 326 1136 346 1135 335 1136 b 257 1057 289 1136 257 1096 b 290 999 257 1032 263 1011 l 571 903 b 597 897 579 900 589 897 b 650 969 626 897 650 933 b 617 1018 650 990 636 1010 z "},"Å":{"ha":1000,"x_min":0,"x_max":0,"o":"m 157 69 b 224 0 147 36 185 0 b 299 69 267 0 289 36 l 350 235 l 647 235 l 699 69 b 774 0 708 36 731 0 b 840 69 813 0 850 36 l 660 704 b 775 856 739 724 775 776 l 775 925 b 619 1081 775 1026 722 1081 l 379 1081 b 224 925 276 1081 224 1026 l 224 856 b 339 704 224 776 260 724 z m 610 374 l 388 374 l 482 704 l 515 704 z m 636 843 l 363 843 l 363 942 l 636 942 z "},"Ã":{"ha":1000,"x_min":0,"x_max":0,"o":"m 650 176 l 699 69 b 774 0 708 36 731 0 b 840 69 813 0 850 36 l 572 782 b 500 844 560 814 542 844 b 429 782 457 844 443 817 l 160 69 b 226 0 147 38 188 0 b 301 69 269 0 292 36 l 350 176 z m 600 315 l 400 315 l 500 583 z m 226 1081 b 157 1017 185 1086 157 1050 l 157 953 b 226 883 157 903 190 883 b 296 933 263 883 288 917 l 774 883 b 843 947 815 878 843 914 l 843 1011 b 774 1081 843 1061 810 1081 b 704 1031 738 1081 713 1047 z "},"Ç":{"ha":1000,"x_min":0,"x_max":0,"o":"m 774 0 b 843 69 806 0 843 19 b 774 139 843 122 804 139 l 547 139 b 443 200 485 139 471 143 l 325 440 b 296 536 308 474 296 497 b 325 642 296 579 307 604 l 446 883 b 542 942 472 936 482 942 l 774 942 b 843 1011 806 942 843 961 b 774 1081 843 1064 804 1081 l 538 1081 b 324 947 431 1081 371 1043 l 196 690 b 157 536 168 635 157 597 b 194 390 157 482 171 438 l 322 132 b 531 0 367 42 426 0 l 564 0 l 564 -154 l 444 -154 b 375 -218 400 -154 375 -174 b 444 -283 375 -264 400 -283 l 604 -283 b 693 -200 660 -283 693 -257 l 693 0 z "},"É":{"ha":1000,"x_min":0,"x_max":0,"o":"m 296 139 l 296 371 l 500 371 b 569 440 536 371 569 390 b 500 510 569 490 536 510 l 296 510 l 296 706 l 774 706 b 843 775 810 706 843 725 b 774 844 843 825 810 844 l 157 844 l 157 0 l 774 0 b 843 69 810 0 843 19 b 774 139 843 119 810 139 z m 360 1018 b 326 969 340 1010 326 990 b 379 897 326 933 350 897 b 406 903 388 897 397 900 l 686 999 b 719 1057 714 1011 719 1032 b 650 1136 719 1096 688 1136 b 619 1129 642 1136 631 1135 z "},"Ê":{"ha":1000,"x_min":0,"x_max":0,"o":"m 296 139 l 296 371 l 500 371 b 569 440 536 371 569 390 b 500 510 569 490 536 510 l 296 510 l 296 706 l 774 706 b 843 775 810 706 843 725 b 774 844 843 825 810 844 l 157 844 l 157 0 l 774 0 b 843 69 810 0 843 19 b 774 139 843 119 810 139 z m 500 1004 l 683 914 b 718 906 697 907 706 906 b 778 968 751 906 778 935 b 744 1021 778 990 765 1010 l 567 1124 b 500 1143 544 1136 521 1143 b 433 1124 479 1143 456 1136 l 256 1021 b 222 968 235 1010 222 990 b 282 906 222 935 249 906 b 317 914 294 906 303 907 z "},"Ë":{"ha":1000,"x_min":0,"x_max":0,"o":"m 296 139 l 296 371 l 500 371 b 569 440 536 371 569 390 b 500 510 569 490 536 510 l 296 510 l 296 706 l 774 706 b 843 775 810 706 843 725 b 774 844 843 825 810 844 l 157 844 l 157 0 l 774 0 b 843 69 810 0 843 19 b 774 139 843 119 810 139 z m 407 1039 b 338 1125 407 1086 388 1125 b 268 1039 288 1125 268 1086 l 268 994 b 338 910 268 953 286 910 b 407 994 389 910 407 953 z m 732 1039 b 663 1125 732 1086 713 1125 b 593 1039 613 1125 593 1086 l 593 994 b 663 910 593 953 611 910 b 732 994 714 910 732 953 z "},"È":{"ha":1000,"x_min":0,"x_max":0,"o":"m 296 139 l 296 371 l 500 371 b 569 440 536 371 569 390 b 500 510 569 490 536 510 l 296 510 l 296 706 l 774 706 b 843 775 810 706 843 725 b 774 844 843 825 810 844 l 157 844 l 157 0 l 774 0 b 843 69 810 0 843 19 b 774 139 843 119 810 139 z m 357 1129 b 326 1136 346 1135 335 1136 b 257 1057 289 1136 257 1096 b 290 999 257 1032 263 1011 l 571 903 b 597 897 579 900 589 897 b 650 969 626 897 650 933 b 617 1018 650 990 636 1010 z "},"Í":{"ha":1000,"x_min":0,"x_max":0,"o":"m 569 706 l 774 706 b 843 775 810 706 843 725 b 774 844 843 825 810 844 l 226 844 b 157 775 190 844 157 825 b 226 706 157 725 190 706 l 431 706 l 431 139 l 226 139 b 157 69 190 139 157 119 b 226 0 157 19 190 0 l 774 0 b 843 69 810 0 843 19 b 774 139 843 119 810 139 l 569 139 z m 360 1018 b 326 969 340 1010 326 990 b 379 897 326 933 350 897 b 406 903 388 897 397 900 l 686 999 b 719 1057 714 1011 719 1032 b 650 1136 719 1096 688 1136 b 619 1129 642 1136 631 1135 z "},"Î":{"ha":1000,"x_min":0,"x_max":0,"o":"m 569 706 l 774 706 b 843 775 810 706 843 725 b 774 844 843 825 810 844 l 226 844 b 157 775 190 844 157 825 b 226 706 157 725 190 706 l 431 706 l 431 139 l 226 139 b 157 69 190 139 157 119 b 226 0 157 19 190 0 l 774 0 b 843 69 810 0 843 19 b 774 139 843 119 810 139 l 569 139 z m 500 1004 l 683 914 b 718 906 697 907 706 906 b 778 968 751 906 778 935 b 744 1021 778 990 765 1010 l 567 1124 b 500 1143 544 1136 521 1143 b 433 1124 479 1143 456 1136 l 256 1021 b 222 968 235 1010 222 990 b 282 906 222 935 249 906 b 317 914 294 906 303 907 z "},"Ï":{"ha":1000,"x_min":0,"x_max":0,"o":"m 569 706 l 774 706 b 843 775 810 706 843 725 b 774 844 843 825 810 844 l 226 844 b 157 775 190 844 157 825 b 226 706 157 725 190 706 l 431 706 l 431 139 l 226 139 b 157 69 190 139 157 119 b 226 0 157 19 190 0 l 774 0 b 843 69 810 0 843 19 b 774 139 843 119 810 139 l 569 139 z m 407 1039 b 338 1125 407 1086 388 1125 b 268 1039 288 1125 268 1086 l 268 994 b 338 910 268 953 286 910 b 407 994 389 910 407 953 z m 732 1039 b 663 1125 732 1086 713 1125 b 593 1039 613 1125 593 1086 l 593 994 b 663 910 593 953 611 910 b 732 994 714 910 732 953 z "},"Ì":{"ha":1000,"x_min":0,"x_max":0,"o":"m 569 706 l 774 706 b 843 775 810 706 843 725 b 774 844 843 825 810 844 l 226 844 b 157 775 190 844 157 825 b 226 706 157 725 190 706 l 431 706 l 431 139 l 226 139 b 157 69 190 139 157 119 b 226 0 157 19 190 0 l 774 0 b 843 69 810 0 843 19 b 774 139 843 119 810 139 l 569 139 z m 357 1129 b 326 1136 346 1135 335 1136 b 257 1057 289 1136 257 1096 b 290 999 257 1032 263 1011 l 571 903 b 597 897 579 900 589 897 b 650 969 626 897 650 933 b 617 1018 650 990 636 1010 z "},"Ñ":{"ha":1000,"x_min":0,"x_max":0,"o":"m 704 238 l 701 238 l 703 238 l 326 679 b 226 749 300 708 276 749 b 157 679 176 749 157 724 l 157 69 b 226 0 157 25 176 0 b 296 69 276 0 296 25 l 296 501 l 299 501 l 674 69 b 774 0 700 40 724 0 b 843 69 824 0 843 25 l 843 679 b 774 749 843 724 824 749 b 704 679 724 749 704 724 z m 226 1081 b 157 1017 185 1086 157 1050 l 157 953 b 226 883 157 903 190 883 b 296 933 263 883 288 917 l 774 883 b 843 947 815 878 843 914 l 843 1011 b 774 1081 843 1061 810 1081 b 704 1031 738 1081 713 1047 z "},"Ó":{"ha":1000,"x_min":0,"x_max":0,"o":"m 324 114 b 500 0 368 47 413 0 b 676 114 588 0 632 47 l 799 296 b 843 422 826 338 842 368 b 799 549 842 476 826 507 l 676 731 b 500 844 632 797 588 844 b 324 731 413 844 368 797 l 201 549 b 157 422 174 507 158 476 b 201 296 158 368 174 338 z m 313 381 b 296 422 304 393 296 406 b 313 464 296 439 304 451 l 444 663 b 500 706 460 685 469 706 b 556 663 531 706 540 685 l 688 464 b 704 422 696 451 704 439 b 688 381 704 406 696 393 l 556 182 b 500 139 540 160 531 139 b 444 182 469 139 460 160 z m 360 1018 b 326 969 340 1010 326 990 b 379 897 326 933 350 897 b 406 903 388 897 397 900 l 686 999 b 719 1057 714 1011 719 1032 b 650 1136 719 1096 688 1136 b 619 1129 642 1136 631 1135 z "},"Ô":{"ha":1000,"x_min":0,"x_max":0,"o":"m 324 114 b 500 0 368 47 413 0 b 676 114 588 0 632 47 l 799 296 b 843 422 826 338 842 368 b 799 549 842 476 826 507 l 676 731 b 500 844 632 797 588 844 b 324 731 413 844 368 797 l 201 549 b 157 422 174 507 158 476 b 201 296 158 368 174 338 z m 313 381 b 296 422 304 393 296 406 b 313 464 296 439 304 451 l 444 663 b 500 706 460 685 469 706 b 556 663 531 706 540 685 l 688 464 b 704 422 696 451 704 439 b 688 381 704 406 696 393 l 556 182 b 500 139 540 160 531 139 b 444 182 469 139 460 160 z m 500 1004 l 683 914 b 718 906 697 907 706 906 b 778 968 751 906 778 935 b 744 1021 778 990 765 1010 l 567 1124 b 500 1143 544 1136 521 1143 b 433 1124 479 1143 456 1136 l 256 1021 b 222 968 235 1010 222 990 b 282 906 222 935 249 906 b 317 914 294 906 303 907 z "},"Ö":{"ha":1000,"x_min":0,"x_max":0,"o":"m 296 994 b 226 1081 296 1042 276 1081 b 157 994 176 1081 157 1042 l 157 908 b 226 824 157 867 175 824 b 296 908 278 824 296 867 z m 843 994 b 774 1081 843 1042 824 1081 b 704 994 724 1081 704 1042 l 704 908 b 774 824 704 867 722 824 b 843 908 825 824 843 867 z m 324 114 b 500 0 368 47 413 0 b 676 114 588 0 632 47 l 799 296 b 843 422 826 338 842 368 b 799 549 842 476 826 507 l 676 731 b 500 844 632 797 588 844 b 324 731 413 844 368 797 l 201 549 b 157 422 174 507 158 476 b 201 296 158 368 174 338 z m 313 381 b 296 422 304 393 296 406 b 313 464 296 439 304 451 l 444 663 b 500 706 460 685 469 706 b 556 663 531 706 540 685 l 688 464 b 704 422 696 451 704 439 b 688 381 704 406 696 393 l 556 182 b 500 139 540 160 531 139 b 444 182 469 139 460 160 z "},"Ò":{"ha":1000,"x_min":0,"x_max":0,"o":"m 324 114 b 500 0 368 47 413 0 b 676 114 588 0 632 47 l 799 296 b 843 422 826 338 842 368 b 799 549 842 476 826 507 l 676 731 b 500 844 632 797 588 844 b 324 731 413 844 368 797 l 201 549 b 157 422 174 507 158 476 b 201 296 158 368 174 338 z m 313 381 b 296 422 304 393 296 406 b 313 464 296 439 304 451 l 444 663 b 500 706 460 685 469 706 b 556 663 531 706 540 685 l 688 464 b 704 422 696 451 704 439 b 688 381 704 406 696 393 l 556 182 b 500 139 540 160 531 139 b 444 182 469 139 460 160 z m 357 1129 b 326 1136 346 1135 335 1136 b 257 1057 289 1136 257 1096 b 290 999 257 1032 263 1011 l 571 903 b 597 897 579 900 589 897 b 650 969 626 897 650 933 b 617 1018 650 990 636 1010 z "},"Õ":{"ha":1000,"x_min":0,"x_max":0,"o":"m 324 114 b 500 0 368 47 413 0 b 676 114 588 0 632 47 l 799 296 b 843 422 826 338 842 368 b 799 549 842 476 826 507 l 676 731 b 500 844 632 797 588 844 b 324 731 413 844 368 797 l 201 549 b 157 422 174 507 158 476 b 201 296 158 368 174 338 z m 313 381 b 296 422 304 393 296 406 b 313 464 296 439 304 451 l 444 663 b 500 706 460 685 469 706 b 556 663 531 706 540 685 l 688 464 b 704 422 696 451 704 439 b 688 381 704 406 696 393 l 556 182 b 500 139 540 160 531 139 b 444 182 469 139 460 160 z m 226 1081 b 157 1017 185 1086 157 1050 l 157 953 b 226 883 157 903 190 883 b 296 933 263 883 288 917 l 774 883 b 843 947 815 878 843 914 l 843 1011 b 774 1081 843 1061 810 1081 b 704 1031 738 1081 713 1047 z "},"Š":{"ha":1000,"x_min":0,"x_max":0,"o":"m 322 649 b 301 682 310 658 301 669 b 349 706 301 701 319 706 l 638 706 b 704 651 681 706 704 699 b 771 586 704 613 729 586 b 843 667 821 586 843 622 b 778 799 843 715 814 767 b 640 844 738 833 693 844 l 346 844 b 231 819 301 844 269 844 b 157 686 183 789 157 742 b 225 554 157 638 176 593 l 674 196 b 699 163 689 183 699 174 b 653 139 699 142 683 139 l 357 139 b 296 186 318 139 296 144 b 231 257 296 224 271 257 b 157 174 182 257 157 218 b 222 44 157 125 185 75 b 363 0 264 10 310 0 l 668 0 b 843 157 764 0 843 53 b 772 290 843 204 825 249 z m 317 1129 b 282 1138 303 1136 294 1138 b 222 1075 249 1138 222 1108 b 256 1022 222 1053 235 1033 l 433 919 b 500 900 456 907 479 900 b 567 919 521 900 544 907 l 744 1022 b 778 1075 765 1033 778 1053 b 718 1138 778 1108 751 1138 b 683 1129 706 1138 697 1136 l 500 1039 z "},"Ú":{"ha":1000,"x_min":0,"x_max":0,"o":"m 704 243 b 683 157 704 210 710 181 b 597 139 660 135 626 139 l 403 139 b 317 157 374 139 340 135 b 296 243 290 181 296 210 l 296 775 b 226 844 296 819 276 844 b 157 775 176 844 157 819 l 157 232 b 214 65 157 165 165 117 b 375 0 260 17 311 0 l 625 0 b 786 65 689 0 740 17 b 843 232 835 117 843 165 l 843 775 b 774 844 843 819 824 844 b 704 775 724 844 704 819 z m 360 1018 b 326 969 340 1010 326 990 b 379 897 326 933 350 897 b 406 903 388 897 397 900 l 686 999 b 719 1057 714 1011 719 1032 b 650 1136 719 1096 688 1136 b 619 1129 642 1136 631 1135 z "},"Û":{"ha":1000,"x_min":0,"x_max":0,"o":"m 704 243 b 683 157 704 210 710 181 b 597 139 660 135 626 139 l 403 139 b 317 157 374 139 340 135 b 296 243 290 181 296 210 l 296 775 b 226 844 296 819 276 844 b 157 775 176 844 157 819 l 157 232 b 214 65 157 165 165 117 b 375 0 260 17 311 0 l 625 0 b 786 65 689 0 740 17 b 843 232 835 117 843 165 l 843 775 b 774 844 843 819 824 844 b 704 775 724 844 704 819 z m 500 1004 l 683 914 b 718 906 697 907 706 906 b 778 968 751 906 778 935 b 744 1021 778 990 765 1010 l 567 1124 b 500 1143 544 1136 521 1143 b 433 1124 479 1143 456 1136 l 256 1021 b 222 968 235 1010 222 990 b 282 906 222 935 249 906 b 317 914 294 906 303 907 z "},"Ü":{"ha":1000,"x_min":0,"x_max":0,"o":"m 704 243 b 683 157 704 210 710 181 b 597 139 660 135 626 139 l 403 139 b 317 157 374 139 340 135 b 296 243 290 181 296 210 l 296 775 b 226 844 296 819 276 844 b 157 775 176 844 157 819 l 157 232 b 214 65 157 165 165 117 b 375 0 260 17 311 0 l 625 0 b 786 65 689 0 740 17 b 843 232 835 117 843 165 l 843 775 b 774 844 843 819 824 844 b 704 775 724 844 704 819 z m 435 994 b 365 1081 435 1042 415 1081 b 296 994 315 1081 296 1042 l 296 908 b 365 824 296 867 314 824 b 435 908 417 824 435 867 z m 704 994 b 635 1081 704 1042 685 1081 b 565 994 585 1081 565 1042 l 565 908 b 635 824 565 867 583 824 b 704 908 686 824 704 867 z "},"Ù":{"ha":1000,"x_min":0,"x_max":0,"o":"m 704 243 b 683 157 704 210 710 181 b 597 139 660 135 626 139 l 403 139 b 317 157 374 139 340 135 b 296 243 290 181 296 210 l 296 775 b 226 844 296 819 276 844 b 157 775 176 844 157 819 l 157 232 b 214 65 157 165 165 117 b 375 0 260 17 311 0 l 625 0 b 786 65 689 0 740 17 b 843 232 835 117 843 165 l 843 775 b 774 844 843 819 824 844 b 704 775 724 844 704 819 z m 357 1129 b 326 1136 346 1135 335 1136 b 257 1057 289 1136 257 1096 b 290 999 257 1032 263 1011 l 571 903 b 597 897 579 900 589 897 b 650 969 626 897 650 933 b 617 1018 650 990 636 1010 z "},"Ý":{"ha":1000,"x_min":0,"x_max":0,"o":"m 569 278 l 843 633 l 843 775 b 774 844 843 819 824 844 b 704 775 724 844 704 819 l 704 681 l 500 415 l 296 681 l 296 775 b 226 844 296 819 276 844 b 157 775 176 844 157 819 l 157 633 l 431 278 l 431 69 b 500 0 431 25 450 0 b 569 69 550 0 569 25 z m 360 1018 b 326 969 340 1010 326 990 b 379 897 326 933 350 897 b 406 903 388 897 397 900 l 686 999 b 719 1057 714 1011 719 1032 b 650 1136 719 1096 688 1136 b 619 1129 642 1136 631 1135 z "},"Ÿ":{"ha":1000,"x_min":0,"x_max":0,"o":"m 569 278 l 843 633 l 843 775 b 774 844 843 819 824 844 b 704 775 724 844 704 819 l 704 681 l 500 415 l 296 681 l 296 775 b 226 844 296 819 276 844 b 157 775 176 844 157 819 l 157 633 l 431 278 l 431 69 b 500 0 431 25 450 0 b 569 69 550 0 569 25 z m 407 1039 b 338 1125 407 1086 388 1125 b 268 1039 288 1125 268 1086 l 268 994 b 338 910 268 953 286 910 b 407 994 389 910 407 953 z m 732 1039 b 663 1125 732 1086 713 1125 b 593 1039 613 1125 593 1086 l 593 994 b 663 910 593 953 611 910 b 732 994 714 910 732 953 z "},"Ž":{"ha":1000,"x_min":0,"x_max":0,"o":"m 843 844 l 226 844 b 157 775 190 844 157 825 b 226 706 157 725 190 706 l 631 706 l 157 88 l 157 0 l 774 0 b 843 69 810 0 843 19 b 774 139 843 119 810 139 l 368 139 l 843 754 z m 317 1129 b 282 1138 303 1136 294 1138 b 222 1075 249 1138 222 1108 b 256 1022 222 1053 235 1033 l 433 919 b 500 900 456 907 479 900 b 567 919 521 900 544 907 l 744 1022 b 778 1075 765 1033 778 1053 b 718 1138 778 1108 751 1138 b 683 1129 706 1138 697 1136 l 500 1039 z "},"á":{"ha":1000,"x_min":0,"x_max":0,"o":"m 563 615 b 681 499 658 615 681 599 l 681 468 l 394 468 b 239 418 336 468 285 458 b 174 269 189 374 174 333 l 174 211 b 243 47 174 142 188 93 b 394 0 292 7 335 0 l 522 0 b 604 19 565 0 567 0 l 696 67 b 764 0 694 29 729 0 b 826 78 808 0 828 39 l 813 531 b 753 689 811 597 804 638 b 581 749 700 742 650 749 l 397 749 b 306 682 353 749 306 739 b 397 615 306 624 358 615 z m 593 335 b 688 239 667 335 688 313 l 688 210 l 540 133 l 393 133 b 307 188 361 133 307 143 l 307 276 b 396 335 307 325 360 335 z m 397 928 b 371 881 378 917 371 899 b 432 810 371 847 397 810 b 457 817 440 810 449 813 l 722 947 b 751 992 742 957 750 974 b 678 1081 754 1032 718 1081 b 650 1074 668 1081 657 1078 z "},"â":{"ha":1000,"x_min":0,"x_max":0,"o":"m 563 615 b 681 499 658 615 681 599 l 681 468 l 394 468 b 239 418 336 468 285 458 b 174 269 189 374 174 333 l 174 211 b 243 47 174 142 188 93 b 394 0 292 7 335 0 l 522 0 b 604 19 565 0 567 0 l 696 67 b 764 0 694 29 729 0 b 826 78 808 0 828 39 l 813 531 b 753 689 811 597 804 638 b 581 749 700 742 650 749 l 397 749 b 306 682 353 749 306 739 b 397 615 306 624 358 615 z m 593 335 b 688 239 667 335 688 313 l 688 210 l 540 133 l 393 133 b 307 188 361 133 307 143 l 307 276 b 396 335 307 325 360 335 z m 265 924 b 239 875 247 910 239 892 b 303 813 239 842 268 813 b 342 826 315 813 329 818 l 500 939 l 658 826 b 697 813 671 818 685 813 b 761 875 732 813 761 842 b 735 924 761 892 753 910 l 564 1058 b 500 1081 544 1074 525 1081 b 436 1058 475 1081 456 1074 z "},"ä":{"ha":1000,"x_min":0,"x_max":0,"o":"m 563 615 b 681 499 658 615 681 599 l 681 468 l 394 468 b 239 418 336 468 285 458 b 174 269 189 374 174 333 l 174 211 b 243 47 174 142 188 93 b 394 0 292 7 335 0 l 522 0 b 604 19 565 0 567 0 l 696 67 b 764 0 694 29 729 0 b 826 78 808 0 828 39 l 813 531 b 753 689 811 597 804 638 b 581 749 700 742 650 749 l 397 749 b 306 682 353 749 306 739 b 397 615 306 624 358 615 z m 593 335 b 688 239 667 335 688 313 l 688 210 l 540 133 l 393 133 b 307 188 361 133 307 143 l 307 276 b 396 335 307 325 360 335 z m 388 994 b 318 1081 388 1042 368 1081 b 249 994 268 1081 249 1042 l 249 908 b 318 824 249 867 267 824 b 388 908 369 824 388 867 z m 742 994 b 672 1081 742 1042 722 1081 b 603 994 622 1081 603 1042 l 603 908 b 672 824 603 867 621 824 b 742 908 724 824 742 867 z "},"à":{"ha":1000,"x_min":0,"x_max":0,"o":"m 563 615 b 681 499 658 615 681 599 l 681 468 l 394 468 b 239 418 336 468 285 458 b 174 269 189 374 174 333 l 174 211 b 243 47 174 142 188 93 b 394 0 292 7 335 0 l 522 0 b 604 19 565 0 567 0 l 696 67 b 764 0 694 29 729 0 b 826 78 808 0 828 39 l 813 531 b 753 689 811 597 804 638 b 581 749 700 742 650 749 l 397 749 b 306 682 353 749 306 739 b 397 615 306 624 358 615 z m 593 335 b 688 239 667 335 688 313 l 688 210 l 540 133 l 393 133 b 307 188 361 133 307 143 l 307 276 b 396 335 307 325 360 335 z m 350 1074 b 322 1081 343 1078 332 1081 b 249 992 282 1081 246 1032 b 278 947 250 974 258 957 l 543 817 b 568 810 551 813 560 810 b 629 881 603 810 629 847 b 603 928 629 899 622 917 z "},"å":{"ha":1000,"x_min":0,"x_max":0,"o":"m 563 553 b 681 476 658 553 681 526 l 681 432 l 394 432 b 239 382 336 432 285 422 b 174 233 189 338 174 297 l 174 211 b 243 47 174 142 188 93 b 394 0 292 7 335 0 l 522 0 b 604 19 565 0 567 0 l 696 67 b 764 0 694 29 729 0 b 826 78 808 0 828 39 l 813 468 b 753 626 811 535 804 575 b 581 686 700 679 650 686 l 397 686 b 306 619 353 686 306 676 b 397 553 306 561 358 553 z m 593 299 b 688 222 667 299 688 283 l 688 210 l 540 133 l 393 133 b 307 188 361 133 307 143 l 307 240 b 396 299 307 289 360 299 z m 739 929 b 583 1081 739 1031 686 1081 l 425 1081 b 269 929 322 1081 269 1031 l 269 894 b 425 743 269 793 322 743 l 583 743 b 739 894 686 743 739 793 z m 606 867 l 403 867 l 403 957 l 606 957 z "},"ã":{"ha":1000,"x_min":0,"x_max":0,"o":"m 563 615 b 681 499 658 615 681 599 l 681 468 l 394 468 b 239 418 336 468 285 458 b 174 269 189 374 174 333 l 174 211 b 243 47 174 142 188 93 b 394 0 292 7 335 0 l 522 0 b 604 19 565 0 567 0 l 696 67 b 764 0 694 29 729 0 b 826 78 808 0 828 39 l 813 531 b 753 689 811 597 804 638 b 581 749 700 742 650 749 l 397 749 b 306 682 353 749 306 739 b 397 615 306 624 358 615 z m 593 335 b 688 239 667 335 688 313 l 688 210 l 540 133 l 393 133 b 307 188 361 133 307 143 l 307 276 b 396 335 307 325 360 335 z m 336 1068 b 304 1072 329 1069 314 1072 b 238 1018 274 1072 250 1056 l 214 940 b 210 911 211 931 210 919 b 279 850 210 872 244 850 b 340 903 306 850 326 864 l 351 933 l 664 868 b 696 864 671 867 686 864 b 763 918 726 864 750 881 l 786 996 b 790 1025 789 1006 790 1017 b 721 1086 790 1064 756 1086 b 660 1033 694 1086 674 1072 l 649 1003 z "},"ç":{"ha":1000,"x_min":0,"x_max":0,"o":"m 174 310 b 253 135 174 228 189 188 l 351 53 b 522 0 413 1 446 0 l 522 -154 l 403 -154 b 333 -218 358 -154 333 -174 b 403 -283 333 -264 358 -283 l 563 -283 b 651 -200 618 -283 651 -257 l 651 0 l 735 0 b 826 67 779 0 826 10 b 735 133 826 125 774 133 l 500 133 b 424 167 474 133 447 147 l 343 235 b 307 292 322 251 307 265 l 307 457 b 343 514 307 483 322 497 l 424 582 b 500 615 447 601 474 615 l 735 615 b 826 682 774 615 826 624 b 735 749 826 739 779 749 l 524 749 b 351 696 446 749 414 747 l 253 614 b 174 439 189 561 174 521 z "},"é":{"ha":1000,"x_min":0,"x_max":0,"o":"m 735 0 b 826 67 774 0 826 8 b 735 133 826 124 779 133 l 449 133 b 360 158 404 133 378 139 l 326 194 b 307 233 317 204 307 221 l 307 278 l 735 278 b 826 376 814 278 826 300 l 826 483 b 757 657 826 557 818 608 l 703 700 b 556 749 651 742 621 749 l 433 749 b 286 693 379 749 349 747 l 239 653 b 174 493 183 606 174 564 l 174 236 b 242 86 174 164 189 133 l 299 36 b 418 0 340 0 363 0 z m 307 506 b 335 567 307 544 318 554 l 381 600 b 449 615 403 615 424 615 l 561 615 b 625 599 582 615 608 614 l 676 554 b 693 492 694 538 693 517 l 693 411 l 307 411 z m 397 928 b 371 881 378 917 371 899 b 432 810 371 847 397 810 b 457 817 440 810 449 813 l 722 947 b 751 992 742 957 750 974 b 678 1081 754 1032 718 1081 b 650 1074 668 1081 657 1078 z "},"ê":{"ha":1000,"x_min":0,"x_max":0,"o":"m 735 0 b 826 67 774 0 826 8 b 735 133 826 124 779 133 l 449 133 b 360 158 404 133 378 139 l 326 194 b 307 233 317 204 307 221 l 307 278 l 735 278 b 826 376 814 278 826 300 l 826 483 b 757 657 826 557 818 608 l 703 700 b 556 749 651 742 621 749 l 433 749 b 286 693 379 749 349 747 l 239 653 b 174 493 183 606 174 564 l 174 236 b 242 86 174 164 189 133 l 299 36 b 418 0 340 0 363 0 z m 307 506 b 335 567 307 544 318 554 l 381 600 b 449 615 403 615 424 615 l 561 615 b 625 599 582 615 608 614 l 676 554 b 693 492 694 538 693 517 l 693 411 l 307 411 z m 265 924 b 239 875 247 910 239 892 b 303 813 239 842 268 813 b 342 826 315 813 329 818 l 500 939 l 658 826 b 697 813 671 818 685 813 b 761 875 732 813 761 842 b 735 924 761 892 753 910 l 564 1058 b 500 1081 544 1074 525 1081 b 436 1058 475 1081 456 1074 z "},"ë":{"ha":1000,"x_min":0,"x_max":0,"o":"m 735 0 b 826 67 774 0 826 8 b 735 133 826 124 779 133 l 449 133 b 360 158 404 133 378 139 l 326 194 b 307 233 317 204 307 221 l 307 278 l 735 278 b 826 376 814 278 826 300 l 826 483 b 757 657 826 557 818 608 l 703 700 b 556 749 651 742 621 749 l 433 749 b 286 693 379 749 349 747 l 239 653 b 174 493 183 606 174 564 l 174 236 b 242 86 174 164 189 133 l 299 36 b 418 0 340 0 363 0 z m 307 506 b 335 567 307 544 318 554 l 381 600 b 449 615 403 615 424 615 l 561 615 b 625 599 582 615 608 614 l 676 554 b 693 492 694 538 693 517 l 693 411 l 307 411 z m 388 994 b 318 1081 388 1042 368 1081 b 249 994 268 1081 249 1042 l 249 908 b 318 824 249 867 267 824 b 388 908 369 824 388 867 z m 742 994 b 672 1081 742 1042 722 1081 b 603 994 622 1081 603 1042 l 603 908 b 672 824 603 867 621 824 b 742 908 724 824 742 867 z "},"è":{"ha":1000,"x_min":0,"x_max":0,"o":"m 735 0 b 826 67 774 0 826 8 b 735 133 826 124 779 133 l 449 133 b 360 158 404 133 378 139 l 326 194 b 307 233 317 204 307 221 l 307 278 l 735 278 b 826 376 814 278 826 300 l 826 483 b 757 657 826 557 818 608 l 703 700 b 556 749 651 742 621 749 l 433 749 b 286 693 379 749 349 747 l 239 653 b 174 493 183 606 174 564 l 174 236 b 242 86 174 164 189 133 l 299 36 b 418 0 340 0 363 0 z m 307 506 b 335 567 307 544 318 554 l 381 600 b 449 615 403 615 424 615 l 561 615 b 625 599 582 615 608 614 l 676 554 b 693 492 694 538 693 517 l 693 411 l 307 411 z m 350 1074 b 322 1081 343 1078 332 1081 b 249 992 282 1081 246 1032 b 278 947 250 974 258 957 l 543 817 b 568 810 551 813 560 810 b 629 881 603 810 629 847 b 603 928 629 899 622 917 z "},"í":{"ha":1000,"x_min":0,"x_max":0,"o":"m 569 656 b 471 749 569 735 547 749 l 331 749 b 239 682 286 749 239 739 b 331 615 239 624 292 615 l 436 615 l 436 133 l 331 133 b 239 67 286 133 239 124 b 331 0 239 8 292 0 l 669 0 b 761 67 708 0 761 8 b 669 133 761 124 714 133 l 569 133 z m 336 928 b 310 881 317 917 310 899 b 371 810 310 847 336 810 b 396 817 379 810 388 813 l 661 947 b 690 992 681 957 689 974 b 617 1081 693 1032 657 1081 b 589 1074 607 1081 596 1078 z "},"î":{"ha":1000,"x_min":0,"x_max":0,"o":"m 569 656 b 471 749 569 735 547 749 l 331 749 b 239 682 286 749 239 739 b 331 615 239 624 292 615 l 436 615 l 436 133 l 331 133 b 239 67 286 133 239 124 b 331 0 239 8 292 0 l 669 0 b 761 67 708 0 761 8 b 669 133 761 124 714 133 l 569 133 z m 229 924 b 203 875 211 910 203 892 b 267 813 203 842 232 813 b 306 826 279 813 293 818 l 464 939 l 622 826 b 661 813 635 818 649 813 b 725 875 696 813 725 842 b 699 924 725 892 717 910 l 528 1058 b 464 1081 508 1074 489 1081 b 400 1058 439 1081 419 1074 z "},"ï":{"ha":1000,"x_min":0,"x_max":0,"o":"m 569 656 b 471 749 569 735 547 749 l 331 749 b 239 682 286 749 239 739 b 331 615 239 624 292 615 l 436 615 l 436 133 l 331 133 b 239 67 286 133 239 124 b 331 0 239 8 292 0 l 669 0 b 761 67 708 0 761 8 b 669 133 761 124 714 133 l 569 133 z m 364 994 b 294 1081 364 1042 344 1081 b 225 994 244 1081 225 1042 l 225 908 b 294 824 225 867 243 824 b 364 908 346 824 364 867 z m 718 994 b 649 1081 718 1042 699 1081 b 579 994 599 1081 579 1042 l 579 908 b 649 824 579 867 597 824 b 718 908 700 824 718 867 z "},"ì":{"ha":1000,"x_min":0,"x_max":0,"o":"m 569 656 b 471 749 569 735 547 749 l 331 749 b 239 682 286 749 239 739 b 331 615 239 624 292 615 l 436 615 l 436 133 l 331 133 b 239 67 286 133 239 124 b 331 0 239 8 292 0 l 669 0 b 761 67 708 0 761 8 b 669 133 761 124 714 133 l 569 133 z m 333 1074 b 306 1081 326 1078 315 1081 b 232 992 265 1081 229 1032 b 261 947 233 974 242 957 l 526 817 b 551 810 535 813 543 810 b 613 881 586 810 613 847 b 586 928 613 899 606 917 z "},"ñ":{"ha":1000,"x_min":0,"x_max":0,"o":"m 504 603 b 546 615 518 611 532 615 l 590 615 b 681 501 671 615 678 583 l 694 90 b 761 0 696 46 707 0 b 826 100 821 0 828 53 l 813 519 b 753 700 810 592 813 649 b 629 749 713 735 681 749 l 531 749 b 415 704 488 749 450 726 l 307 633 l 307 636 l 307 651 b 240 749 307 699 300 749 b 174 650 179 749 174 699 l 174 92 b 240 0 174 46 183 0 b 307 92 297 0 307 46 l 307 479 z m 336 1068 b 304 1072 329 1069 314 1072 b 238 1018 274 1072 250 1056 l 214 940 b 210 911 211 931 210 919 b 279 850 210 872 244 850 b 340 903 306 850 326 864 l 351 933 l 664 868 b 696 864 671 867 686 864 b 763 918 726 864 750 881 l 786 996 b 790 1025 789 1006 790 1017 b 721 1086 790 1064 756 1086 b 660 1033 694 1086 674 1072 l 649 1003 z "},"ó":{"ha":1000,"x_min":0,"x_max":0,"o":"m 174 249 b 265 69 174 161 196 128 b 447 0 335 11 363 0 l 553 0 b 735 69 638 0 665 11 b 826 249 804 128 826 161 l 826 500 b 742 674 826 589 808 619 b 553 749 676 728 646 749 l 447 749 b 258 674 354 749 324 728 b 174 500 192 619 174 589 z m 307 500 b 356 579 307 528 317 546 b 447 615 385 604 406 615 l 553 615 b 644 579 594 615 615 604 b 693 500 683 546 693 528 l 693 249 b 644 169 693 221 683 203 b 553 133 615 144 594 133 l 447 133 b 356 169 406 133 385 144 b 307 249 317 203 307 221 z m 397 928 b 371 881 378 917 371 899 b 432 810 371 847 397 810 b 457 817 440 810 449 813 l 722 947 b 751 992 742 957 750 974 b 678 1081 754 1032 718 1081 b 650 1074 668 1081 657 1078 z "},"ô":{"ha":1000,"x_min":0,"x_max":0,"o":"m 174 249 b 265 69 174 161 196 128 b 447 0 335 11 363 0 l 553 0 b 735 69 638 0 665 11 b 826 249 804 128 826 161 l 826 500 b 742 674 826 589 808 619 b 553 749 676 728 646 749 l 447 749 b 258 674 354 749 324 728 b 174 500 192 619 174 589 z m 307 500 b 356 579 307 528 317 546 b 447 615 385 604 406 615 l 553 615 b 644 579 594 615 615 604 b 693 500 683 546 693 528 l 693 249 b 644 169 693 221 683 203 b 553 133 615 144 594 133 l 447 133 b 356 169 406 133 385 144 b 307 249 317 203 307 221 z m 265 924 b 239 875 247 910 239 892 b 303 813 239 842 268 813 b 342 826 315 813 329 818 l 500 939 l 658 826 b 697 813 671 818 685 813 b 761 875 732 813 761 842 b 735 924 761 892 753 910 l 564 1058 b 500 1081 544 1074 525 1081 b 436 1058 475 1081 456 1074 z "},"ö":{"ha":1000,"x_min":0,"x_max":0,"o":"m 174 249 b 265 69 174 161 196 128 b 447 0 335 11 363 0 l 553 0 b 735 69 638 0 665 11 b 826 249 804 128 826 161 l 826 500 b 742 674 826 589 808 619 b 553 749 676 728 646 749 l 447 749 b 258 674 354 749 324 728 b 174 500 192 619 174 589 z m 307 500 b 356 579 307 528 317 546 b 447 615 385 604 406 615 l 553 615 b 644 579 594 615 615 604 b 693 500 683 546 693 528 l 693 249 b 644 169 693 221 683 203 b 553 133 615 144 594 133 l 447 133 b 356 169 406 133 385 144 b 307 249 317 203 307 221 z m 388 994 b 318 1081 388 1042 368 1081 b 249 994 268 1081 249 1042 l 249 908 b 318 824 249 867 267 824 b 388 908 369 824 388 867 z m 742 994 b 672 1081 742 1042 722 1081 b 603 994 622 1081 603 1042 l 603 908 b 672 824 603 867 621 824 b 742 908 724 824 742 867 z "},"ò":{"ha":1000,"x_min":0,"x_max":0,"o":"m 174 249 b 265 69 174 161 196 128 b 447 0 335 11 363 0 l 553 0 b 735 69 638 0 665 11 b 826 249 804 128 826 161 l 826 500 b 742 674 826 589 808 619 b 553 749 676 728 646 749 l 447 749 b 258 674 354 749 324 728 b 174 500 192 619 174 589 z m 307 500 b 356 579 307 528 317 546 b 447 615 385 604 406 615 l 553 615 b 644 579 594 615 615 604 b 693 500 683 546 693 528 l 693 249 b 644 169 693 221 683 203 b 553 133 615 144 594 133 l 447 133 b 356 169 406 133 385 144 b 307 249 317 203 307 221 z m 350 1074 b 322 1081 343 1078 332 1081 b 249 992 282 1081 246 1032 b 278 947 250 974 258 957 l 543 817 b 568 810 551 813 560 810 b 629 881 603 810 629 847 b 603 928 629 899 622 917 z "},"õ":{"ha":1000,"x_min":0,"x_max":0,"o":"m 174 249 b 265 69 174 161 196 128 b 447 0 335 11 363 0 l 553 0 b 735 69 638 0 665 11 b 826 249 804 128 826 161 l 826 500 b 742 674 826 589 808 619 b 553 749 676 728 646 749 l 447 749 b 258 674 354 749 324 728 b 174 500 192 619 174 589 z m 307 500 b 356 579 307 528 317 546 b 447 615 385 604 406 615 l 553 615 b 644 579 594 615 615 604 b 693 500 683 546 693 528 l 693 249 b 644 169 693 221 683 203 b 553 133 615 144 594 133 l 447 133 b 356 169 406 133 385 144 b 307 249 317 203 307 221 z m 336 1068 b 304 1072 329 1069 314 1072 b 238 1018 274 1072 250 1056 l 214 940 b 210 911 211 931 210 919 b 279 850 210 872 244 850 b 340 903 306 850 326 864 l 351 933 l 664 868 b 696 864 671 867 686 864 b 763 918 726 864 750 881 l 786 996 b 790 1025 789 1006 790 1017 b 721 1086 790 1064 756 1086 b 660 1033 694 1086 674 1072 l 649 1003 z "},"š":{"ha":1000,"x_min":0,"x_max":0,"o":"m 604 615 b 686 589 640 615 664 613 b 743 561 703 571 718 561 b 811 628 779 561 811 590 b 758 703 811 665 783 682 b 604 749 708 744 678 749 l 376 749 b 193 579 276 749 193 685 b 310 417 193 493 236 450 l 624 274 b 693 207 654 260 693 239 b 582 133 693 129 629 133 l 401 133 b 294 163 360 133 318 136 b 243 186 279 179 264 186 b 174 119 206 186 174 157 b 235 42 174 86 210 61 b 401 0 285 3 332 0 l 607 0 b 826 199 735 0 826 64 b 696 388 826 294 782 349 l 363 539 b 326 578 343 547 326 556 b 401 615 326 621 374 615 z m 500 954 l 342 1067 b 303 1081 329 1075 315 1081 b 239 1018 268 1081 239 1051 b 265 969 239 1001 247 983 l 436 835 b 500 813 456 819 475 813 b 564 835 525 813 544 819 l 735 969 b 761 1018 753 983 761 1001 b 697 1081 761 1051 732 1081 b 658 1067 685 1081 671 1075 z "},"ú":{"ha":1000,"x_min":0,"x_max":0,"o":"m 826 657 b 760 749 826 703 817 749 b 693 657 703 749 693 703 l 693 269 l 497 146 b 456 133 485 138 471 133 l 411 133 b 333 161 379 133 344 142 b 319 247 322 181 321 217 l 306 657 b 240 749 304 700 297 749 b 174 649 179 749 172 697 l 188 229 b 249 49 190 157 189 100 b 372 0 293 11 335 0 l 471 0 b 586 44 507 0 543 17 l 694 115 l 694 93 b 761 0 694 47 704 0 b 826 99 832 0 826 68 z m 397 928 b 371 881 378 917 371 899 b 432 810 371 847 397 810 b 457 817 440 810 449 813 l 722 947 b 751 992 742 957 750 974 b 678 1081 754 1032 718 1081 b 650 1074 668 1081 657 1078 z "},"û":{"ha":1000,"x_min":0,"x_max":0,"o":"m 826 657 b 760 749 826 703 817 749 b 693 657 703 749 693 703 l 693 269 l 497 146 b 456 133 485 138 471 133 l 411 133 b 333 161 379 133 344 142 b 319 247 322 181 321 217 l 306 657 b 240 749 304 700 297 749 b 174 649 179 749 172 697 l 188 229 b 249 49 190 157 189 100 b 372 0 293 11 335 0 l 471 0 b 586 44 507 0 543 17 l 694 115 l 694 93 b 761 0 694 47 704 0 b 826 99 832 0 826 68 z m 265 924 b 239 875 247 910 239 892 b 303 813 239 842 268 813 b 342 826 315 813 329 818 l 500 939 l 658 826 b 697 813 671 818 685 813 b 761 875 732 813 761 842 b 735 924 761 892 753 910 l 564 1058 b 500 1081 544 1074 525 1081 b 436 1058 475 1081 456 1074 z "},"ü":{"ha":1000,"x_min":0,"x_max":0,"o":"m 826 657 b 760 749 826 703 817 749 b 693 657 703 749 693 703 l 693 269 l 497 146 b 456 133 485 138 471 133 l 411 133 b 333 161 379 133 344 142 b 319 247 322 181 321 217 l 306 657 b 240 749 304 700 297 749 b 174 649 179 749 172 697 l 188 229 b 249 49 190 157 189 100 b 372 0 293 11 335 0 l 471 0 b 586 44 507 0 543 17 l 694 115 l 694 93 b 761 0 694 47 704 0 b 826 99 832 0 826 68 z m 388 994 b 318 1081 388 1042 368 1081 b 249 994 268 1081 249 1042 l 249 908 b 318 824 249 867 267 824 b 388 908 369 824 388 867 z m 742 994 b 672 1081 742 1042 722 1081 b 603 994 622 1081 603 1042 l 603 908 b 672 824 603 867 621 824 b 742 908 724 824 742 867 z "},"ù":{"ha":1000,"x_min":0,"x_max":0,"o":"m 826 657 b 760 749 826 703 817 749 b 693 657 703 749 693 703 l 693 269 l 497 146 b 456 133 485 138 471 133 l 411 133 b 333 161 379 133 344 142 b 319 247 322 181 321 217 l 306 657 b 240 749 304 700 297 749 b 174 649 179 749 172 697 l 188 229 b 249 49 190 157 189 100 b 372 0 293 11 335 0 l 471 0 b 586 44 507 0 543 17 l 694 115 l 694 93 b 761 0 694 47 704 0 b 826 99 832 0 826 68 z m 350 1074 b 322 1081 343 1078 332 1081 b 249 992 282 1081 246 1032 b 278 947 250 974 258 957 l 543 817 b 568 810 551 813 560 810 b 629 881 603 810 629 847 b 603 928 629 899 622 917 z "},"ý":{"ha":1000,"x_min":0,"x_max":0,"o":"m 515 188 l 486 188 l 307 581 l 307 657 b 240 749 307 703 297 749 b 174 657 183 749 174 703 l 174 597 b 206 488 174 558 188 528 l 369 125 b 449 54 390 79 393 54 l 456 54 l 357 -150 l 265 -150 b 174 -217 221 -150 174 -160 b 265 -283 174 -275 226 -283 l 368 -283 b 474 -214 429 -283 444 -276 l 810 518 b 826 603 824 547 826 569 l 826 657 b 760 749 826 703 817 749 b 693 657 703 749 693 703 l 693 581 z m 397 928 b 371 881 378 917 371 899 b 432 810 371 847 397 810 b 457 817 440 810 449 813 l 722 947 b 751 992 742 957 750 974 b 678 1081 754 1032 718 1081 b 650 1074 668 1081 657 1078 z "},"ÿ":{"ha":1000,"x_min":0,"x_max":0,"o":"m 515 188 l 486 188 l 307 581 l 307 657 b 240 749 307 703 297 749 b 174 657 183 749 174 703 l 174 597 b 206 488 174 558 188 528 l 369 125 b 449 54 390 79 393 54 l 456 54 l 357 -150 l 265 -150 b 174 -217 221 -150 174 -160 b 265 -283 174 -275 226 -283 l 368 -283 b 474 -214 429 -283 444 -276 l 810 518 b 826 603 824 547 826 569 l 826 657 b 760 749 826 703 817 749 b 693 657 703 749 693 703 l 693 581 z m 388 994 b 318 1081 388 1042 368 1081 b 249 994 268 1081 249 1042 l 249 908 b 318 824 249 867 267 824 b 388 908 369 824 388 867 z m 742 994 b 672 1081 742 1042 722 1081 b 603 994 622 1081 603 1042 l 603 908 b 672 824 603 867 621 824 b 742 908 724 824 742 867 z "},"ž":{"ha":1000,"x_min":0,"x_max":0,"o":"m 199 176 b 174 113 175 154 174 144 l 174 78 b 272 0 174 39 179 0 l 735 0 b 826 67 774 0 826 8 b 735 133 826 124 779 133 l 340 133 l 788 560 b 826 635 818 589 826 608 l 826 679 b 736 749 826 726 804 749 l 303 749 b 211 682 258 749 211 739 b 303 615 211 624 264 615 l 658 615 z m 500 954 l 342 1067 b 303 1081 329 1075 315 1081 b 239 1018 268 1081 239 1051 b 265 969 239 1001 247 983 l 436 835 b 500 813 456 819 475 813 b 564 835 525 813 544 819 l 735 969 b 761 1018 753 983 761 1001 b 697 1081 761 1051 732 1081 b 658 1067 685 1081 671 1075 z "},"€":{"ha":1000,"x_min":0,"x_max":0,"o":"m 392 733 l 467 883 b 563 942 493 936 503 942 l 738 942 b 807 1011 769 942 807 961 b 738 1081 807 1064 768 1081 l 558 1081 b 344 947 451 1081 392 1043 l 238 733 l 197 733 b 114 664 140 733 114 711 b 183 594 114 619 136 599 b 185 479 175 544 175 528 b 114 411 138 476 114 454 b 197 342 114 363 140 342 l 239 342 l 343 132 b 551 0 388 42 447 0 l 738 0 b 807 69 769 0 807 19 b 738 139 807 122 768 139 l 568 139 b 464 200 506 139 492 143 l 394 342 l 594 342 b 678 411 651 342 678 363 b 594 481 678 461 651 481 l 326 481 b 325 594 314 522 314 553 l 653 594 b 736 664 710 594 736 615 b 653 733 736 714 710 733 z "},"℮":{"ha":1000,"x_min":0,"x_max":0,"o":"m 1000 436 l 1000 450 b 499 899 1000 699 775 899 b 0 450 224 899 0 699 b 499 0 0 201 224 0 b 894 175 660 0 806 69 l 822 175 b 500 26 744 85 629 26 b 194 160 381 26 272 78 b 183 188 188 168 183 176 l 183 432 b 190 436 183 436 186 436 z m 815 469 b 810 461 815 465 814 461 l 190 461 b 183 469 186 461 183 465 l 183 710 b 196 740 183 721 189 732 b 500 871 274 821 382 871 b 803 744 618 871 725 822 b 815 715 811 736 815 725 z "},"◊":{"ha":1000,"x_min":0,"x_max":0,"o":"m 506 186 l 494 186 l 347 506 b 339 540 342 518 339 528 b 347 575 339 553 342 563 l 494 894 l 506 894 l 653 575 b 661 540 658 563 661 553 b 653 506 661 528 658 518 z m 500 0 b 613 97 542 0 576 21 l 785 461 b 803 540 796 485 803 511 b 785 619 803 569 796 596 l 613 983 b 500 1081 576 1060 542 1081 b 388 983 458 1081 424 1060 l 215 619 b 197 540 204 596 197 569 b 215 461 197 511 204 485 l 388 97 b 500 0 424 21 458 0 z "},"Ω":{"ha":1000,"x_min":0,"x_max":0,"o":"m 694 139 l 807 390 b 843 536 829 439 843 482 b 804 690 843 597 832 635 l 668 964 b 500 1081 631 1039 572 1081 b 332 964 428 1081 369 1039 l 196 690 b 157 536 168 635 157 597 b 193 390 157 482 171 439 l 306 139 l 171 139 b 111 68 131 139 111 103 b 171 0 111 33 131 0 l 340 0 b 436 186 438 0 482 83 l 321 440 b 296 536 306 475 296 497 b 325 642 296 579 307 604 l 453 900 b 500 942 471 938 479 942 b 547 900 521 942 529 938 l 675 642 b 704 536 693 604 704 579 b 679 440 704 497 694 475 l 564 186 b 660 0 518 83 563 0 l 829 0 b 889 68 869 0 889 33 b 829 139 889 103 869 139 z "},"∂":{"ha":1000,"x_min":0,"x_max":0,"o":"m 543 686 l 253 364 b 214 275 226 335 214 304 b 238 204 214 251 222 226 l 349 44 b 426 0 369 14 397 0 b 514 44 457 0 489 17 l 782 346 b 835 451 817 385 835 417 b 796 549 835 479 822 510 l 460 1050 b 406 1081 446 1071 425 1081 b 349 976 358 1081 313 1031 z m 621 574 l 700 453 l 432 153 l 351 272 z "},"∆":{"ha":1000,"x_min":0,"x_max":0,"o":"m 774 0 b 840 69 813 0 850 36 l 572 1010 b 500 1081 563 1046 546 1081 b 429 1010 456 1081 440 1047 l 157 69 b 224 0 147 36 185 0 z m 675 139 l 324 139 l 499 751 l 501 751 z "},"∏":{"ha":1000,"x_min":0,"x_max":0,"o":"m 744 942 l 808 942 b 878 1011 844 942 878 961 b 808 1081 878 1061 844 1081 l 192 1081 b 122 1011 156 1081 122 1061 b 192 942 122 961 156 942 l 256 942 l 256 -93 b 325 -162 256 -137 275 -162 b 394 -93 375 -162 394 -137 l 394 942 l 606 942 l 606 -93 b 675 -162 606 -137 625 -162 b 744 -93 725 -162 744 -137 z "},"∑":{"ha":1000,"x_min":0,"x_max":0,"o":"m 531 478 l 263 3 b 244 -61 250 -18 244 -40 b 357 -162 244 -117 285 -162 l 714 -162 b 783 -93 744 -162 783 -146 b 714 -24 783 -43 746 -24 l 406 -24 l 649 406 b 646 557 682 464 686 493 l 406 942 l 714 942 b 783 1011 746 942 783 961 b 714 1081 783 1064 744 1081 l 357 1081 b 242 981 282 1081 242 1036 b 265 907 242 957 250 932 z "},"√":{"ha":1000,"x_min":0,"x_max":0,"o":"m 128 393 b 93 342 108 385 93 361 b 176 269 93 300 128 254 l 283 306 l 406 -76 b 536 -164 424 -142 468 -164 b 660 -76 603 -164 649 -126 l 856 1010 b 786 1081 861 1053 824 1081 b 724 1033 757 1081 729 1065 l 536 -21 l 526 -21 l 406 371 b 299 444 390 413 347 444 b 251 436 285 444 268 442 z "},"∞":{"ha":1000,"x_min":0,"x_max":0,"o":"m 576 540 l 661 642 l 750 642 l 750 439 l 661 439 z m 339 439 l 250 439 l 250 642 l 339 642 l 424 540 z m 500 644 l 436 722 b 325 772 410 754 372 772 l 218 772 b 117 676 158 772 117 732 l 117 404 b 218 308 117 349 158 308 l 325 308 b 436 358 372 308 410 326 l 500 436 l 564 358 b 675 308 590 326 628 308 l 782 308 b 883 404 842 308 883 349 l 883 676 b 782 772 883 732 842 772 l 675 772 b 564 722 628 772 590 754 z "},"∫":{"ha":1000,"x_min":0,"x_max":0,"o":"m 518 704 l 518 894 b 567 942 518 918 529 942 l 621 942 b 688 1011 665 942 688 976 b 621 1081 688 1046 665 1081 l 540 1081 b 379 907 436 1081 379 1017 l 379 692 l 465 93 l 465 -97 b 417 -144 465 -121 454 -144 l 363 -144 b 296 -214 318 -144 296 -179 b 363 -283 296 -249 318 -283 l 443 -283 b 604 -110 547 -283 604 -219 l 604 106 z "},"≈":{"ha":1000,"x_min":0,"x_max":0,"o":"m 622 700 l 765 635 b 794 629 775 631 785 629 b 863 704 835 629 863 667 b 822 763 863 728 850 750 l 700 817 b 626 835 678 828 653 835 b 546 808 601 835 574 828 l 378 701 l 235 767 b 206 772 225 771 215 772 b 138 697 165 772 138 735 b 178 639 138 674 150 651 l 300 585 b 374 567 322 575 347 567 b 454 593 399 567 425 575 z m 622 406 l 765 340 b 794 335 775 336 785 335 b 863 410 835 335 863 372 b 822 468 863 433 850 456 l 700 522 b 626 540 678 533 653 540 b 546 514 601 540 574 533 l 378 407 l 235 472 b 206 478 225 476 215 478 b 138 403 165 478 138 440 b 178 344 138 379 150 357 l 300 290 b 374 272 322 281 347 272 b 454 299 399 272 425 281 z "},"≠":{"ha":1000,"x_min":0,"x_max":0,"o":"m 774 646 b 843 715 810 646 843 665 b 774 785 843 765 810 785 l 689 785 l 732 865 b 743 904 739 879 743 892 b 676 968 743 942 711 968 b 613 925 653 968 629 956 l 536 785 l 226 785 b 157 715 190 785 157 765 b 226 646 157 665 190 646 l 463 646 l 379 490 l 226 490 b 157 421 190 490 157 471 b 226 351 157 371 190 351 l 304 351 l 260 269 b 249 229 251 256 249 242 b 314 165 249 192 279 165 b 379 210 338 165 363 179 l 456 351 l 774 351 b 843 421 810 351 843 371 b 774 490 843 471 810 490 l 531 490 l 614 646 z "},"≤":{"ha":1000,"x_min":0,"x_max":0,"o":"m 196 139 b 122 69 139 139 122 103 b 196 0 122 36 139 0 l 800 0 b 878 69 860 0 878 36 b 800 139 878 103 860 139 z m 817 797 b 878 869 850 813 878 835 b 806 944 878 913 847 944 b 758 933 790 944 774 940 l 185 676 b 122 604 144 658 122 642 b 185 532 122 567 144 550 l 758 275 b 806 264 774 268 790 264 b 878 339 847 264 878 296 b 817 411 878 374 850 396 l 381 600 l 381 608 z "},"≥":{"ha":1000,"x_min":0,"x_max":0,"o":"m 200 139 b 122 69 140 139 122 103 b 200 0 122 36 140 0 l 804 0 b 878 69 861 0 878 36 b 804 139 878 103 861 139 z m 619 608 l 619 600 l 183 411 b 122 339 150 396 122 374 b 194 264 122 296 153 264 b 242 275 210 264 226 268 l 815 532 b 878 604 856 550 878 567 b 815 676 878 642 856 658 l 242 933 b 194 944 226 940 210 944 b 122 869 153 944 122 913 b 183 797 122 835 150 813 z "},"π":{"ha":1000,"x_min":0,"x_max":0,"o":"m 267 285 l 200 90 b 263 0 181 33 219 0 b 324 40 289 0 314 13 l 400 253 l 400 615 l 608 615 l 608 69 b 675 0 608 25 625 0 b 742 69 725 0 742 25 l 742 615 l 815 615 b 885 682 851 615 885 632 b 815 749 885 732 851 749 l 185 749 b 115 682 149 749 115 732 b 185 615 115 632 149 615 l 267 615 z "},"":{"ha":1000,"x_min":0,"x_max":0,"o":"m 503 289 l 503 69 b 604 0 503 17 533 0 b 706 69 675 0 706 17 l 706 403 b 683 472 706 432 706 451 b 622 492 663 492 647 492 l 379 492 b 294 390 307 492 294 461 b 379 289 294 319 307 289 z "},"":{"ha":1000,"x_min":0,"x_max":0,"o":"m 774 471 b 843 540 810 471 843 490 b 774 610 843 590 810 610 l 226 610 b 157 540 190 610 157 590 b 226 471 157 490 190 471 z "},"":{"ha":1000,"x_min":0,"x_max":0,"o":"m 418 321 b 346 294 386 321 367 321 b 329 232 329 274 329 258 l 329 89 b 346 26 329 63 329 47 b 418 0 367 0 386 0 l 582 0 b 654 26 614 0 633 0 b 671 89 671 47 671 63 l 671 232 b 654 294 671 258 671 274 b 582 321 633 321 614 321 z "},"":{"ha":1000,"x_min":0,"x_max":0,"o":"m 704 810 l 335 489 b 293 408 300 460 293 456 l 293 69 b 363 0 293 25 313 0 b 432 69 413 0 432 25 l 432 390 l 800 708 b 843 796 838 742 843 746 l 843 872 b 807 956 843 918 843 925 l 693 1053 b 636 1081 674 1069 663 1081 b 579 1053 611 1081 596 1068 l 211 739 b 157 663 189 719 157 696 b 226 590 157 624 186 590 b 285 618 249 590 268 604 l 636 919 l 704 861 z "},"":{"ha":1000,"x_min":0,"x_max":0,"o":"m 431 714 b 500 632 438 669 446 632 b 569 714 554 632 563 669 l 604 926 b 614 1006 608 949 614 983 b 526 1081 614 1067 568 1081 l 474 1081 b 386 1006 432 1081 386 1067 b 396 926 386 983 392 949 z "},"⑁":{"ha":1000,"x_min":0,"x_max":0,"o":"m 704 471 l 704 69 b 774 0 704 25 724 0 b 843 69 824 0 843 25 l 843 1011 b 774 1081 843 1056 824 1081 b 704 1011 724 1081 704 1056 l 704 610 l 157 610 l 157 69 b 226 0 157 25 176 0 b 296 69 276 0 296 25 l 296 471 z "},"⑂":{"ha":1000,"x_min":0,"x_max":0,"o":"m 431 471 l 431 69 b 500 0 431 25 450 0 b 569 69 550 0 569 25 l 569 471 l 843 471 l 843 1011 b 774 1081 843 1056 824 1081 b 704 1011 724 1081 704 1056 l 704 610 l 296 610 l 296 1011 b 226 1081 296 1056 276 1081 b 157 1011 176 1081 157 1056 l 157 471 z "},"":{"ha":1000,"x_min":0,"x_max":0,"o":"m 157 0 l 843 0 l 843 1081 l 157 1081 z "},"":{"ha":1000,"x_min":0,"x_max":0,"o":"m -1000 610 l -1000 471 l 2000 471 l 2000 610 z "}," ":{"ha":1000,"x_min":0,"x_max":0,"o":""},"­":{"ha":1000,"x_min":0,"x_max":0,"o":"m 338 624 b 254 539 281 624 254 601 b 338 454 254 476 281 454 l 663 454 b 746 539 719 454 746 476 b 663 624 746 601 719 624 z "},"ˉ":{"ha":1000,"x_min":0,"x_max":0,"o":"m 314 1024 b 250 957 271 1024 250 1007 b 314 889 250 908 271 889 l 688 889 b 750 957 731 889 750 908 b 688 1024 750 1007 731 1024 z "},"∕":{"ha":1000,"x_min":0,"x_max":0,"o":"m 790 885 b 801 921 797 897 801 910 b 731 988 801 958 765 988 b 676 954 711 988 690 978 l 211 192 b 199 151 203 178 199 164 b 267 86 199 114 232 86 b 325 122 288 86 310 97 z "},"∙":{"ha":1000,"x_min":0,"x_max":0,"o":"m 550 411 b 622 438 581 411 603 411 b 638 500 638 458 638 474 l 638 578 b 622 640 638 604 638 619 b 550 667 603 667 581 667 l 450 667 b 378 640 419 667 397 667 b 363 578 363 619 363 604 l 363 500 b 378 438 363 474 363 458 b 450 411 397 411 419 411 z "},"⑀":{"ha":1000,"x_min":0,"x_max":0,"o":"m 296 139 l 296 422 b 226 492 296 467 276 492 b 157 422 176 492 157 467 l 157 0 l 569 0 l 569 942 l 704 942 l 704 658 b 774 589 704 614 724 589 b 843 658 824 589 843 614 l 843 1081 l 431 1081 l 431 139 z "},"ﬁ":{"ha":1000,"x_min":0,"x_max":0,"o":"m 361 749 l 361 775 b 489 890 361 872 399 890 l 593 890 b 685 957 639 890 685 900 b 588 1024 685 1019 633 1024 l 497 1024 b 292 957 415 1024 356 1018 b 228 767 232 899 228 843 l 228 749 l 190 749 b 99 682 146 749 99 739 b 190 615 99 624 151 615 l 228 615 l 228 92 b 294 0 228 46 238 0 b 361 92 351 0 361 46 l 361 615 l 639 615 l 639 133 l 600 133 b 508 67 556 133 508 124 b 600 0 508 8 561 0 l 811 0 b 903 67 850 0 903 8 b 811 133 903 124 856 133 l 772 133 l 772 656 b 674 749 772 735 750 749 z "},"ﬂ":{"ha":1000,"x_min":0,"x_max":0,"o":"m 639 890 l 639 133 l 600 133 b 508 67 556 133 508 124 b 600 0 508 8 561 0 l 811 0 b 903 67 850 0 903 8 b 811 133 903 124 856 133 l 772 133 l 772 931 b 674 1024 772 1010 750 1024 l 497 1024 b 292 957 415 1024 356 1018 b 228 767 232 899 228 843 l 228 749 l 190 749 b 99 682 146 749 99 739 b 190 615 99 624 151 615 l 228 615 l 228 92 b 294 0 228 46 238 0 b 361 92 351 0 361 46 l 361 615 l 479 615 b 571 682 518 615 571 624 b 479 749 571 739 524 749 l 361 749 l 361 775 b 489 890 361 872 399 890 z "},"¹":{"ha":1000,"x_min":0,"x_max":0,"o":"m 588 468 b 656 536 622 468 656 485 b 588 601 656 586 622 601 l 575 601 l 575 1081 l 386 1081 b 318 1014 351 1081 318 1064 b 386 947 318 963 351 947 l 442 947 l 442 601 l 428 601 b 360 535 393 601 360 586 b 428 468 360 485 393 468 z "},"³":{"ha":1000,"x_min":0,"x_max":0,"o":"m 522 711 l 522 601 l 385 601 b 315 535 349 601 315 586 b 385 468 315 485 349 468 l 556 468 b 656 568 614 468 656 510 l 656 981 b 556 1081 656 1039 614 1081 l 385 1081 b 315 1014 349 1081 315 1064 b 385 947 315 963 349 947 l 522 947 l 522 844 l 446 844 b 376 778 410 844 376 826 b 446 711 376 728 410 711 z "},"²":{"ha":1000,"x_min":0,"x_max":0,"o":"m 447 711 l 550 711 b 625 738 581 711 600 715 b 657 821 654 764 657 789 l 657 969 b 624 1054 657 1003 651 1031 b 550 1081 600 1076 579 1081 l 382 1081 b 314 1014 347 1081 314 1064 b 382 947 314 963 347 947 l 524 947 l 524 844 l 422 844 b 314 736 350 844 314 806 l 314 468 l 589 468 b 657 535 624 468 657 485 b 589 601 657 586 624 601 l 447 601 z "},"‐":{"ha":1000,"x_min":0,"x_max":0,"o":"m 338 624 b 254 539 281 624 254 601 b 338 454 254 476 281 454 l 663 454 b 746 539 719 454 746 476 b 663 624 746 601 719 624 z "},"ℓ":{"ha":1000,"x_min":0,"x_max":0,"o":"m 803 208 b 825 257 818 225 825 242 b 751 326 825 294 789 326 b 706 307 735 326 719 321 l 544 139 l 474 139 l 474 369 l 656 581 b 703 706 686 617 703 651 l 703 992 b 610 1081 703 1049 667 1081 l 431 1081 b 335 990 365 1081 335 1047 l 335 407 l 297 363 b 247 272 256 313 247 296 b 306 207 247 236 274 207 b 335 214 317 207 326 210 l 335 68 b 404 0 335 25 365 0 l 542 0 b 660 57 585 0 629 25 z m 468 947 l 569 947 l 569 682 l 468 561 z "}}}
